<svg width="67" height="48" viewBox="0 0 67 48" fill="none" xmlns="http://www.w3.org/2000/svg">
<path d="M52.7993 47.52C56.4793 47.52 59.6793 46.24 62.3993 43.68C64.9593 40.96 66.2393 37.6 66.2393 33.6C66.2393 26.08 64.0793 19.44 59.7593 13.68C55.2793 7.75999 50.1593 3.27999 44.3993 0.239994L43.4393 -2.86102e-06C43.1193 -2.86102e-06 42.8793 0.159995 42.7193 0.479991C42.3993 0.799987 42.2393 1.11999 42.2393 1.43999C42.2393 1.92 42.3993 2.32 42.7193 2.63999C48.6393 7.91999 51.5993 12.8 51.5993 17.28C51.5993 19.84 50.4793 21.6 48.2393 22.56C45.6793 23.84 43.6793 25.36 42.2393 27.12C40.6393 28.88 39.8393 31.28 39.8393 34.32C39.8393 38 41.1193 41.12 43.6793 43.68C46.0793 46.24 49.1193 47.52 52.7993 47.52ZM12.9593 47.52C16.6393 47.52 19.8393 46.24 22.5593 43.68C25.1193 40.96 26.3993 37.6 26.3993 33.6C26.3993 26.08 24.2393 19.44 19.9193 13.68C15.4393 7.75999 10.3193 3.27999 4.5593 0.239994L3.59929 -2.86102e-06C3.27929 -2.86102e-06 3.03929 0.159995 2.8793 0.479991C2.5593 0.799987 2.3993 1.11999 2.3993 1.43999C2.3993 1.92 2.5593 2.32 2.8793 2.63999C8.7993 7.91999 11.7593 12.8 11.7593 17.28C11.7593 19.84 10.6393 21.6 8.3993 22.56C5.8393 23.84 3.8393 25.36 2.3993 27.12C0.799292 28.88 -0.000709534 31.28 -0.000709534 34.32C-0.000709534 38 1.27929 41.12 3.83929 43.68C6.23929 46.24 9.27929 47.52 12.9593 47.52Z" fill="#A6A5A5"/>
</svg>
