<svg width="67" height="48" viewBox="0 0 67 48" fill="none" xmlns="http://www.w3.org/2000/svg">
<path d="M13.4409 47.52C9.76094 47.52 6.56094 46.24 3.84094 43.68C1.28094 40.96 0.000938416 37.6 0.000938416 33.6C0.000938416 26.08 2.16094 19.44 6.48094 13.68C10.9609 7.75999 16.0809 3.27999 21.8409 0.239994L22.8009 -2.86102e-06C23.1209 -2.86102e-06 23.3609 0.159995 23.5209 0.479991C23.8409 0.799987 24.0009 1.11999 24.0009 1.43999C24.0009 1.92 23.8409 2.32 23.5209 2.63999C17.6009 7.91999 14.6409 12.8 14.6409 17.28C14.6409 19.84 15.7609 21.6 18.0009 22.56C20.5609 23.84 22.5609 25.36 24.0009 27.12C25.6009 28.88 26.4009 31.28 26.4009 34.32C26.4009 38 25.1209 41.12 22.5609 43.68C20.1609 46.24 17.1209 47.52 13.4409 47.52ZM53.2809 47.52C49.6009 47.52 46.4009 46.24 43.6809 43.68C41.1209 40.96 39.8409 37.6 39.8409 33.6C39.8409 26.08 42.0009 19.44 46.3209 13.68C50.8009 7.75999 55.9209 3.27999 61.6809 0.239994L62.6409 -2.86102e-06C62.9609 -2.86102e-06 63.2009 0.159995 63.3609 0.479991C63.6809 0.799987 63.8409 1.11999 63.8409 1.43999C63.8409 1.92 63.6809 2.32 63.3609 2.63999C57.4409 7.91999 54.4809 12.8 54.4809 17.28C54.4809 19.84 55.6009 21.6 57.8409 22.56C60.4009 23.84 62.4009 25.36 63.8409 27.12C65.4409 28.88 66.2409 31.28 66.2409 34.32C66.2409 38 64.9609 41.12 62.4009 43.68C60.0009 46.24 56.9609 47.52 53.2809 47.52Z" fill="#A6A5A5"/>
</svg>
