<svg width="643" height="312" viewBox="0 0 643 312" fill="none" xmlns="http://www.w3.org/2000/svg">
<g clip-path="url(#clip0_438_1737)">
<rect x="1" y="1" width="641" height="310" fill="white"/>
<rect width="492" height="60" transform="translate(150 1)" fill="#EEEEF0"/>
<path d="M180.756 31.96V30.868C182.138 30.868 182.828 30.3033 182.828 29.174C182.828 28.642 182.656 28.208 182.31 27.872C181.965 27.536 181.526 27.368 180.994 27.368C180.528 27.368 180.136 27.5033 179.818 27.774C179.51 28.0447 179.319 28.4133 179.244 28.88H177.942C178.204 27.1067 179.235 26.22 181.036 26.22C181.914 26.22 182.632 26.472 183.192 26.976C183.79 27.4987 184.088 28.194 184.088 29.062C184.088 30.1447 183.64 30.938 182.744 31.442C183.743 31.918 184.242 32.7907 184.242 34.06C184.242 35.0213 183.916 35.796 183.262 36.384C182.646 36.944 181.848 37.224 180.868 37.224C180.01 37.224 179.277 36.9673 178.67 36.454C178.026 35.922 177.686 35.236 177.648 34.396H178.922C178.988 34.9093 179.212 35.32 179.594 35.628C179.986 35.9267 180.444 36.076 180.966 36.076C181.545 36.076 182.026 35.88 182.408 35.488C182.791 35.0867 182.982 34.592 182.982 34.004C182.982 33.3413 182.777 32.8233 182.366 32.45C181.956 32.0767 181.419 31.9133 180.756 31.96ZM188.192 35.796H192.448V37H185.63L190.25 31.33C190.875 30.5647 191.188 29.9347 191.188 29.44C191.188 28.8893 190.983 28.418 190.572 28.026C190.161 27.6247 189.676 27.424 189.116 27.424C188.584 27.424 188.122 27.6153 187.73 27.998C187.338 28.3713 187.123 28.824 187.086 29.356H185.77C185.873 28.404 186.218 27.6433 186.806 27.074C187.403 26.5047 188.173 26.22 189.116 26.22C190.04 26.22 190.824 26.5187 191.468 27.116C192.121 27.7133 192.448 28.4693 192.448 29.384C192.448 30.196 192.187 30.9193 191.664 31.554L188.192 35.796Z" fill="#504B4C"/>
<path d="M265.157 31.96V30.868C266.538 30.868 267.229 30.3033 267.229 29.174C267.229 28.642 267.056 28.208 266.711 27.872C266.365 27.536 265.927 27.368 265.395 27.368C264.928 27.368 264.536 27.5033 264.219 27.774C263.911 28.0447 263.719 28.4133 263.645 28.88H262.343C262.604 27.1067 263.635 26.22 265.437 26.22C266.314 26.22 267.033 26.472 267.593 26.976C268.19 27.4987 268.489 28.194 268.489 29.062C268.489 30.1447 268.041 30.938 267.145 31.442C268.143 31.918 268.643 32.7907 268.643 34.06C268.643 35.0213 268.316 35.796 267.663 36.384C267.047 36.944 266.249 37.224 265.269 37.224C264.41 37.224 263.677 36.9673 263.071 36.454C262.427 35.922 262.086 35.236 262.049 34.396H263.323C263.388 34.9093 263.612 35.32 263.995 35.628C264.387 35.9267 264.844 36.076 265.367 36.076C265.945 36.076 266.426 35.88 266.809 35.488C267.191 35.0867 267.383 34.592 267.383 34.004C267.383 33.3413 267.177 32.8233 266.767 32.45C266.356 32.0767 265.819 31.9133 265.157 31.96ZM275.966 34.312H277.17V35.46H275.966V37H274.706V35.46H269.498L275.966 25.996V34.312ZM274.706 34.312V29.958H274.678L271.71 34.312H274.706Z" fill="#504B4C"/>
<path d="M349.557 31.96V30.868C350.938 30.868 351.629 30.3033 351.629 29.174C351.629 28.642 351.456 28.208 351.111 27.872C350.766 27.536 350.327 27.368 349.795 27.368C349.328 27.368 348.936 27.5033 348.619 27.774C348.311 28.0447 348.12 28.4133 348.045 28.88H346.743C347.004 27.1067 348.036 26.22 349.837 26.22C350.714 26.22 351.433 26.472 351.993 26.976C352.59 27.4987 352.889 28.194 352.889 29.062C352.889 30.1447 352.441 30.938 351.545 31.442C352.544 31.918 353.043 32.7907 353.043 34.06C353.043 35.0213 352.716 35.796 352.063 36.384C351.447 36.944 350.649 37.224 349.669 37.224C348.81 37.224 348.078 36.9673 347.471 36.454C346.827 35.922 346.486 35.236 346.449 34.396H347.723C347.788 34.9093 348.012 35.32 348.395 35.628C348.787 35.9267 349.244 36.076 349.767 36.076C350.346 36.076 350.826 35.88 351.209 35.488C351.592 35.0867 351.783 34.592 351.783 34.004C351.783 33.3413 351.578 32.8233 351.167 32.45C350.756 32.0767 350.22 31.9133 349.557 31.96ZM359.107 26.22L360.059 26.864L357.245 30.672L357.273 30.7C357.609 30.532 357.954 30.448 358.309 30.448C359.167 30.448 359.891 30.784 360.479 31.456C361.067 32.1187 361.361 32.884 361.361 33.752C361.361 34.7227 361.02 35.544 360.339 36.216C359.667 36.888 358.845 37.224 357.875 37.224C356.941 37.224 356.12 36.8927 355.411 36.23C354.711 35.5673 354.361 34.774 354.361 33.85C354.361 33.0193 354.743 32.0907 355.509 31.064L359.107 26.22ZM357.861 36.048C358.458 36.048 358.981 35.838 359.429 35.418C359.877 34.9887 360.101 34.48 360.101 33.892C360.101 33.2853 359.877 32.758 359.429 32.31C358.99 31.8527 358.467 31.624 357.861 31.624C357.282 31.624 356.764 31.848 356.307 32.296C355.849 32.7347 355.621 33.2433 355.621 33.822C355.621 34.4287 355.84 34.9513 356.279 35.39C356.727 35.8287 357.254 36.048 357.861 36.048Z" fill="#504B4C"/>
<path d="M433.955 31.96V30.868C435.337 30.868 436.027 30.3033 436.027 29.174C436.027 28.642 435.855 28.208 435.509 27.872C435.164 27.536 434.725 27.368 434.193 27.368C433.727 27.368 433.335 27.5033 433.017 27.774C432.709 28.0447 432.518 28.4133 432.443 28.88H431.141C431.403 27.1067 432.434 26.22 434.235 26.22C435.113 26.22 435.831 26.472 436.391 26.976C436.989 27.4987 437.287 28.194 437.287 29.062C437.287 30.1447 436.839 30.938 435.943 31.442C436.942 31.918 437.441 32.7907 437.441 34.06C437.441 35.0213 437.115 35.796 436.461 36.384C435.845 36.944 435.047 37.224 434.067 37.224C433.209 37.224 432.476 36.9673 431.869 36.454C431.225 35.922 430.885 35.236 430.847 34.396H432.121C432.187 34.9093 432.411 35.32 432.793 35.628C433.185 35.9267 433.643 36.076 434.165 36.076C434.744 36.076 435.225 35.88 435.607 35.488C435.99 35.0867 436.181 34.592 436.181 34.004C436.181 33.3413 435.976 32.8233 435.565 32.45C435.155 32.0767 434.618 31.9133 433.955 31.96ZM442.245 32.072C441.695 32.072 441.214 32.268 440.803 32.66C440.402 33.0427 440.201 33.5093 440.201 34.06C440.201 34.5827 440.407 35.0447 440.817 35.446C441.237 35.8473 441.713 36.048 442.245 36.048C442.777 36.048 443.249 35.8473 443.659 35.446C444.079 35.0447 444.289 34.5827 444.289 34.06C444.289 33.5093 444.084 33.0427 443.673 32.66C443.272 32.268 442.796 32.072 442.245 32.072ZM438.941 34.06C438.941 33.472 439.086 32.9493 439.375 32.492C439.665 32.0347 440.075 31.7127 440.607 31.526C439.683 31.0033 439.221 30.2147 439.221 29.16C439.221 28.3107 439.511 27.6107 440.089 27.06C440.668 26.5 441.387 26.22 442.245 26.22C443.104 26.22 443.823 26.5 444.401 27.06C444.98 27.6107 445.269 28.3107 445.269 29.16C445.269 30.2147 444.807 31.0033 443.883 31.526C444.415 31.7127 444.826 32.0347 445.115 32.492C445.405 32.9493 445.549 33.472 445.549 34.06C445.549 35.0027 445.232 35.768 444.597 36.356C443.972 36.9347 443.188 37.224 442.245 37.224C441.303 37.224 440.514 36.93 439.879 36.342C439.254 35.754 438.941 34.9933 438.941 34.06ZM442.245 27.34C441.751 27.34 441.326 27.522 440.971 27.886C440.626 28.2407 440.453 28.6653 440.453 29.16C440.453 29.5987 440.64 30.0093 441.013 30.392C441.396 30.7653 441.807 30.952 442.245 30.952C442.684 30.952 443.09 30.7653 443.463 30.392C443.846 30.0093 444.037 29.5987 444.037 29.16C444.037 28.6653 443.86 28.2407 443.505 27.886C443.16 27.522 442.74 27.34 442.245 27.34Z" fill="#504B4C"/>
<path d="M521.072 34.312H522.276V35.46H521.072V37H519.812V35.46H514.604L521.072 25.996V34.312ZM519.812 34.312V29.958H519.784L516.816 34.312H519.812ZM526.646 37.224C525.423 37.224 524.471 36.5753 523.79 35.278C523.239 34.2327 522.964 33.0473 522.964 31.722C522.964 30.378 523.234 29.188 523.776 28.152C524.448 26.864 525.404 26.22 526.646 26.22C527.887 26.22 528.844 26.864 529.516 28.152C530.057 29.188 530.328 30.378 530.328 31.722C530.328 33.0473 530.052 34.2327 529.502 35.278C528.82 36.5753 527.868 37.224 526.646 37.224ZM526.646 27.34C525.806 27.34 525.166 27.886 524.728 28.978C524.392 29.8087 524.224 30.7187 524.224 31.708C524.224 32.6973 524.392 33.6027 524.728 34.424C525.166 35.5067 525.806 36.048 526.646 36.048C527.486 36.048 528.125 35.5067 528.564 34.424C528.9 33.6027 529.068 32.6973 529.068 31.708C529.068 30.7187 528.9 29.8087 528.564 28.978C528.125 27.886 527.486 27.34 526.646 27.34Z" fill="#504B4C"/>
<path d="M605.472 34.312H606.676V35.46H605.472V37H604.212V35.46H599.004L605.472 25.996V34.312ZM604.212 34.312V29.958H604.184L601.216 34.312H604.212ZM610.192 35.796H614.448V37H607.63L612.25 31.33C612.875 30.5647 613.188 29.9347 613.188 29.44C613.188 28.8893 612.983 28.418 612.572 28.026C612.161 27.6247 611.676 27.424 611.116 27.424C610.584 27.424 610.122 27.6153 609.73 27.998C609.338 28.3713 609.123 28.824 609.086 29.356H607.77C607.873 28.404 608.218 27.6433 608.806 27.074C609.403 26.5047 610.173 26.22 611.116 26.22C612.04 26.22 612.824 26.5187 613.468 27.116C614.121 27.7133 614.448 28.4693 614.448 29.384C614.448 30.196 614.187 30.9193 613.664 31.554L610.192 35.796Z" fill="#504B4C"/>
<path d="M180.952 82.072C180.402 82.072 179.921 82.268 179.51 82.66C179.109 83.0427 178.908 83.5093 178.908 84.06C178.908 84.5827 179.114 85.0447 179.524 85.446C179.944 85.8473 180.42 86.048 180.952 86.048C181.484 86.048 181.956 85.8473 182.366 85.446C182.786 85.0447 182.996 84.5827 182.996 84.06C182.996 83.5093 182.791 83.0427 182.38 82.66C181.979 82.268 181.503 82.072 180.952 82.072ZM177.648 84.06C177.648 83.472 177.793 82.9493 178.082 82.492C178.372 82.0347 178.782 81.7127 179.314 81.526C178.39 81.0033 177.928 80.2147 177.928 79.16C177.928 78.3107 178.218 77.6107 178.796 77.06C179.375 76.5 180.094 76.22 180.952 76.22C181.811 76.22 182.53 76.5 183.108 77.06C183.687 77.6107 183.976 78.3107 183.976 79.16C183.976 80.2147 183.514 81.0033 182.59 81.526C183.122 81.7127 183.533 82.0347 183.822 82.492C184.112 82.9493 184.256 83.472 184.256 84.06C184.256 85.0027 183.939 85.768 183.304 86.356C182.679 86.9347 181.895 87.224 180.952 87.224C180.01 87.224 179.221 86.93 178.586 86.342C177.961 85.754 177.648 84.9933 177.648 84.06ZM180.952 77.34C180.458 77.34 180.033 77.522 179.678 77.886C179.333 78.2407 179.16 78.6653 179.16 79.16C179.16 79.5987 179.347 80.0093 179.72 80.392C180.103 80.7653 180.514 80.952 180.952 80.952C181.391 80.952 181.797 80.7653 182.17 80.392C182.553 80.0093 182.744 79.5987 182.744 79.16C182.744 78.6653 182.567 78.2407 182.212 77.886C181.867 77.522 181.447 77.34 180.952 77.34ZM188.85 81.96V80.868C190.231 80.868 190.922 80.3033 190.922 79.174C190.922 78.642 190.749 78.208 190.404 77.872C190.059 77.536 189.62 77.368 189.088 77.368C188.621 77.368 188.229 77.5033 187.912 77.774C187.604 78.0447 187.413 78.4133 187.338 78.88H186.036C186.297 77.1067 187.329 76.22 189.13 76.22C190.007 76.22 190.726 76.472 191.286 76.976C191.883 77.4987 192.182 78.194 192.182 79.062C192.182 80.1447 191.734 80.938 190.838 81.442C191.837 81.918 192.336 82.7907 192.336 84.06C192.336 85.0213 192.009 85.796 191.356 86.384C190.74 86.944 189.942 87.224 188.962 87.224C188.103 87.224 187.371 86.9673 186.764 86.454C186.12 85.922 185.779 85.236 185.742 84.396H187.016C187.081 84.9093 187.305 85.32 187.688 85.628C188.08 85.9267 188.537 86.076 189.06 86.076C189.639 86.076 190.119 85.88 190.502 85.488C190.885 85.0867 191.076 84.592 191.076 84.004C191.076 83.3413 190.871 82.8233 190.46 82.45C190.049 82.0767 189.513 81.9133 188.85 81.96Z" fill="#504B4C"/>
<path d="M265.353 82.072C264.802 82.072 264.321 82.268 263.911 82.66C263.509 83.0427 263.309 83.5093 263.309 84.06C263.309 84.5827 263.514 85.0447 263.925 85.446C264.345 85.8473 264.821 86.048 265.353 86.048C265.885 86.048 266.356 85.8473 266.767 85.446C267.187 85.0447 267.397 84.5827 267.397 84.06C267.397 83.5093 267.191 83.0427 266.781 82.66C266.379 82.268 265.903 82.072 265.353 82.072ZM262.049 84.06C262.049 83.472 262.193 82.9493 262.483 82.492C262.772 82.0347 263.183 81.7127 263.715 81.526C262.791 81.0033 262.329 80.2147 262.329 79.16C262.329 78.3107 262.618 77.6107 263.197 77.06C263.775 76.5 264.494 76.22 265.353 76.22C266.211 76.22 266.93 76.5 267.509 77.06C268.087 77.6107 268.377 78.3107 268.377 79.16C268.377 80.2147 267.915 81.0033 266.991 81.526C267.523 81.7127 267.933 82.0347 268.223 82.492C268.512 82.9493 268.657 83.472 268.657 84.06C268.657 85.0027 268.339 85.768 267.705 86.356C267.079 86.9347 266.295 87.224 265.353 87.224C264.41 87.224 263.621 86.93 262.987 86.342C262.361 85.754 262.049 84.9933 262.049 84.06ZM265.353 77.34C264.858 77.34 264.433 77.522 264.079 77.886C263.733 78.2407 263.561 78.6653 263.561 79.16C263.561 79.5987 263.747 80.0093 264.121 80.392C264.503 80.7653 264.914 80.952 265.353 80.952C265.791 80.952 266.197 80.7653 266.571 80.392C266.953 80.0093 267.145 79.5987 267.145 79.16C267.145 78.6653 266.967 78.2407 266.613 77.886C266.267 77.522 265.847 77.34 265.353 77.34ZM273.446 82.072C272.896 82.072 272.415 82.268 272.004 82.66C271.603 83.0427 271.402 83.5093 271.402 84.06C271.402 84.5827 271.608 85.0447 272.018 85.446C272.438 85.8473 272.914 86.048 273.446 86.048C273.978 86.048 274.45 85.8473 274.86 85.446C275.28 85.0447 275.49 84.5827 275.49 84.06C275.49 83.5093 275.285 83.0427 274.874 82.66C274.473 82.268 273.997 82.072 273.446 82.072ZM270.142 84.06C270.142 83.472 270.287 82.9493 270.576 82.492C270.866 82.0347 271.276 81.7127 271.808 81.526C270.884 81.0033 270.422 80.2147 270.422 79.16C270.422 78.3107 270.712 77.6107 271.29 77.06C271.869 76.5 272.588 76.22 273.446 76.22C274.305 76.22 275.024 76.5 275.602 77.06C276.181 77.6107 276.47 78.3107 276.47 79.16C276.47 80.2147 276.008 81.0033 275.084 81.526C275.616 81.7127 276.027 82.0347 276.316 82.492C276.606 82.9493 276.75 83.472 276.75 84.06C276.75 85.0027 276.433 85.768 275.798 86.356C275.173 86.9347 274.389 87.224 273.446 87.224C272.504 87.224 271.715 86.93 271.08 86.342C270.455 85.754 270.142 84.9933 270.142 84.06ZM273.446 77.34C272.952 77.34 272.527 77.522 272.172 77.886C271.827 78.2407 271.654 78.6653 271.654 79.16C271.654 79.5987 271.841 80.0093 272.214 80.392C272.597 80.7653 273.008 80.952 273.446 80.952C273.885 80.952 274.291 80.7653 274.664 80.392C275.047 80.0093 275.238 79.5987 275.238 79.16C275.238 78.6653 275.061 78.2407 274.706 77.886C274.361 77.522 273.941 77.34 273.446 77.34Z" fill="#504B4C"/>
<path d="M348.689 87.224L347.737 86.566L350.551 82.772L350.523 82.744C350.262 82.8747 349.921 82.94 349.501 82.94C348.642 82.94 347.914 82.618 347.317 81.974C346.729 81.3207 346.435 80.56 346.435 79.692C346.435 78.7213 346.771 77.9 347.443 77.228C348.124 76.556 348.95 76.22 349.921 76.22C350.854 76.22 351.671 76.5513 352.371 77.214C353.08 77.8767 353.435 78.67 353.435 79.594C353.435 80.4247 353.052 81.3533 352.287 82.38L348.689 87.224ZM349.935 81.82C350.56 81.82 351.088 81.61 351.517 81.19C351.956 80.7607 352.175 80.2333 352.175 79.608C352.175 79.0293 351.956 78.516 351.517 78.068C351.088 77.62 350.588 77.396 350.019 77.396C349.394 77.396 348.848 77.6107 348.381 78.04C347.924 78.4693 347.695 78.992 347.695 79.608C347.695 80.2053 347.919 80.7233 348.367 81.162C348.815 81.6007 349.338 81.82 349.935 81.82ZM357.651 81.96V80.868C359.032 80.868 359.723 80.3033 359.723 79.174C359.723 78.642 359.55 78.208 359.205 77.872C358.859 77.536 358.421 77.368 357.889 77.368C357.422 77.368 357.03 77.5033 356.713 77.774C356.405 78.0447 356.213 78.4133 356.139 78.88H354.837C355.098 77.1067 356.129 76.22 357.931 76.22C358.808 76.22 359.527 76.472 360.087 76.976C360.684 77.4987 360.983 78.194 360.983 79.062C360.983 80.1447 360.535 80.938 359.639 81.442C360.637 81.918 361.137 82.7907 361.137 84.06C361.137 85.0213 360.81 85.796 360.157 86.384C359.541 86.944 358.743 87.224 357.763 87.224C356.904 87.224 356.171 86.9673 355.565 86.454C354.921 85.922 354.58 85.236 354.543 84.396H355.817C355.882 84.9093 356.106 85.32 356.489 85.628C356.881 85.9267 357.338 86.076 357.861 86.076C358.439 86.076 358.92 85.88 359.303 85.488C359.685 85.0867 359.877 84.592 359.877 84.004C359.877 83.3413 359.671 82.8233 359.261 82.45C358.85 82.0767 358.313 81.9133 357.651 81.96Z" fill="#504B4C"/>
<path d="M433.087 87.224L432.135 86.566L434.949 82.772L434.921 82.744C434.66 82.8747 434.319 82.94 433.899 82.94C433.041 82.94 432.313 82.618 431.715 81.974C431.127 81.3207 430.833 80.56 430.833 79.692C430.833 78.7213 431.169 77.9 431.841 77.228C432.523 76.556 433.349 76.22 434.319 76.22C435.253 76.22 436.069 76.5513 436.769 77.214C437.479 77.8767 437.833 78.67 437.833 79.594C437.833 80.4247 437.451 81.3533 436.685 82.38L433.087 87.224ZM434.333 81.82C434.959 81.82 435.486 81.61 435.915 81.19C436.354 80.7607 436.573 80.2333 436.573 79.608C436.573 79.0293 436.354 78.516 435.915 78.068C435.486 77.62 434.987 77.396 434.417 77.396C433.792 77.396 433.246 77.6107 432.779 78.04C432.322 78.4693 432.093 78.992 432.093 79.608C432.093 80.2053 432.317 80.7233 432.765 81.162C433.213 81.6007 433.736 81.82 434.333 81.82ZM442.245 82.072C441.695 82.072 441.214 82.268 440.803 82.66C440.402 83.0427 440.201 83.5093 440.201 84.06C440.201 84.5827 440.407 85.0447 440.817 85.446C441.237 85.8473 441.713 86.048 442.245 86.048C442.777 86.048 443.249 85.8473 443.659 85.446C444.079 85.0447 444.289 84.5827 444.289 84.06C444.289 83.5093 444.084 83.0427 443.673 82.66C443.272 82.268 442.796 82.072 442.245 82.072ZM438.941 84.06C438.941 83.472 439.086 82.9493 439.375 82.492C439.665 82.0347 440.075 81.7127 440.607 81.526C439.683 81.0033 439.221 80.2147 439.221 79.16C439.221 78.3107 439.511 77.6107 440.089 77.06C440.668 76.5 441.387 76.22 442.245 76.22C443.104 76.22 443.823 76.5 444.401 77.06C444.98 77.6107 445.269 78.3107 445.269 79.16C445.269 80.2147 444.807 81.0033 443.883 81.526C444.415 81.7127 444.826 82.0347 445.115 82.492C445.405 82.9493 445.549 83.472 445.549 84.06C445.549 85.0027 445.232 85.768 444.597 86.356C443.972 86.9347 443.188 87.224 442.245 87.224C441.303 87.224 440.514 86.93 439.879 86.342C439.254 85.754 438.941 84.9933 438.941 84.06ZM442.245 77.34C441.751 77.34 441.326 77.522 440.971 77.886C440.626 78.2407 440.453 78.6653 440.453 79.16C440.453 79.5987 440.64 80.0093 441.013 80.392C441.396 80.7653 441.807 80.952 442.245 80.952C442.684 80.952 443.09 80.7653 443.463 80.392C443.846 80.0093 444.037 79.5987 444.037 79.16C444.037 78.6653 443.86 78.2407 443.505 77.886C443.16 77.522 442.74 77.34 442.245 77.34Z" fill="#504B4C"/>
<path d="M514.015 77.648H512.181L512.909 76.444H515.275V87H514.015V77.648ZM522.599 87.224C521.376 87.224 520.424 86.5753 519.743 85.278C519.192 84.2327 518.917 83.0473 518.917 81.722C518.917 80.378 519.187 79.188 519.729 78.152C520.401 76.864 521.357 76.22 522.599 76.22C523.84 76.22 524.797 76.864 525.469 78.152C526.01 79.188 526.281 80.378 526.281 81.722C526.281 83.0473 526.005 84.2327 525.455 85.278C524.773 86.5753 523.821 87.224 522.599 87.224ZM522.599 77.34C521.759 77.34 521.119 77.886 520.681 78.978C520.345 79.8087 520.177 80.7187 520.177 81.708C520.177 82.6973 520.345 83.6027 520.681 84.424C521.119 85.5067 521.759 86.048 522.599 86.048C523.439 86.048 524.078 85.5067 524.517 84.424C524.853 83.6027 525.021 82.6973 525.021 81.708C525.021 80.7187 524.853 79.8087 524.517 78.978C524.078 77.886 523.439 77.34 522.599 77.34ZM530.496 81.96V80.868C531.878 80.868 532.568 80.3033 532.568 79.174C532.568 78.642 532.396 78.208 532.05 77.872C531.705 77.536 531.266 77.368 530.734 77.368C530.268 77.368 529.876 77.5033 529.558 77.774C529.25 78.0447 529.059 78.4133 528.984 78.88H527.682C527.944 77.1067 528.975 76.22 530.776 76.22C531.654 76.22 532.372 76.472 532.932 76.976C533.53 77.4987 533.828 78.194 533.828 79.062C533.828 80.1447 533.38 80.938 532.484 81.442C533.483 81.918 533.982 82.7907 533.982 84.06C533.982 85.0213 533.656 85.796 533.002 86.384C532.386 86.944 531.588 87.224 530.608 87.224C529.75 87.224 529.017 86.9673 528.41 86.454C527.766 85.922 527.426 85.236 527.388 84.396H528.662C528.728 84.9093 528.952 85.32 529.334 85.628C529.726 85.9267 530.184 86.076 530.706 86.076C531.285 86.076 531.766 85.88 532.148 85.488C532.531 85.0867 532.722 84.592 532.722 84.004C532.722 83.3413 532.517 82.8233 532.106 82.45C531.696 82.0767 531.159 81.9133 530.496 81.96Z" fill="#504B4C"/>
<path d="M598.415 77.648H596.581L597.309 76.444H599.675V87H598.415V77.648ZM606.999 87.224C605.776 87.224 604.824 86.5753 604.143 85.278C603.592 84.2327 603.317 83.0473 603.317 81.722C603.317 80.378 603.588 79.188 604.129 78.152C604.801 76.864 605.758 76.22 606.999 76.22C608.24 76.22 609.197 76.864 609.869 78.152C610.41 79.188 610.681 80.378 610.681 81.722C610.681 83.0473 610.406 84.2327 609.855 85.278C609.174 86.5753 608.222 87.224 606.999 87.224ZM606.999 77.34C606.159 77.34 605.52 77.886 605.081 78.978C604.745 79.8087 604.577 80.7187 604.577 81.708C604.577 82.6973 604.745 83.6027 605.081 84.424C605.52 85.5067 606.159 86.048 606.999 86.048C607.839 86.048 608.478 85.5067 608.917 84.424C609.253 83.6027 609.421 82.6973 609.421 81.708C609.421 80.7187 609.253 79.8087 608.917 78.978C608.478 77.886 607.839 77.34 606.999 77.34ZM615.093 82.072C614.542 82.072 614.062 82.268 613.651 82.66C613.25 83.0427 613.049 83.5093 613.049 84.06C613.049 84.5827 613.254 85.0447 613.665 85.446C614.085 85.8473 614.561 86.048 615.093 86.048C615.625 86.048 616.096 85.8473 616.507 85.446C616.927 85.0447 617.137 84.5827 617.137 84.06C617.137 83.5093 616.932 83.0427 616.521 82.66C616.12 82.268 615.644 82.072 615.093 82.072ZM611.789 84.06C611.789 83.472 611.934 82.9493 612.223 82.492C612.512 82.0347 612.923 81.7127 613.455 81.526C612.531 81.0033 612.069 80.2147 612.069 79.16C612.069 78.3107 612.358 77.6107 612.937 77.06C613.516 76.5 614.234 76.22 615.093 76.22C615.952 76.22 616.67 76.5 617.249 77.06C617.828 77.6107 618.117 78.3107 618.117 79.16C618.117 80.2147 617.655 81.0033 616.731 81.526C617.263 81.7127 617.674 82.0347 617.963 82.492C618.252 82.9493 618.397 83.472 618.397 84.06C618.397 85.0027 618.08 85.768 617.445 86.356C616.82 86.9347 616.036 87.224 615.093 87.224C614.15 87.224 613.362 86.93 612.727 86.342C612.102 85.754 611.789 84.9933 611.789 84.06ZM615.093 77.34C614.598 77.34 614.174 77.522 613.819 77.886C613.474 78.2407 613.301 78.6653 613.301 79.16C613.301 79.5987 613.488 80.0093 613.861 80.392C614.244 80.7653 614.654 80.952 615.093 80.952C615.532 80.952 615.938 80.7653 616.311 80.392C616.694 80.0093 616.885 79.5987 616.885 79.16C616.885 78.6653 616.708 78.2407 616.353 77.886C616.008 77.522 615.588 77.34 615.093 77.34Z" fill="#504B4C"/>
<path d="M180.952 232.072C180.402 232.072 179.921 232.268 179.51 232.66C179.109 233.043 178.908 233.509 178.908 234.06C178.908 234.583 179.114 235.045 179.524 235.446C179.944 235.847 180.42 236.048 180.952 236.048C181.484 236.048 181.956 235.847 182.366 235.446C182.786 235.045 182.996 234.583 182.996 234.06C182.996 233.509 182.791 233.043 182.38 232.66C181.979 232.268 181.503 232.072 180.952 232.072ZM177.648 234.06C177.648 233.472 177.793 232.949 178.082 232.492C178.372 232.035 178.782 231.713 179.314 231.526C178.39 231.003 177.928 230.215 177.928 229.16C177.928 228.311 178.218 227.611 178.796 227.06C179.375 226.5 180.094 226.22 180.952 226.22C181.811 226.22 182.53 226.5 183.108 227.06C183.687 227.611 183.976 228.311 183.976 229.16C183.976 230.215 183.514 231.003 182.59 231.526C183.122 231.713 183.533 232.035 183.822 232.492C184.112 232.949 184.256 233.472 184.256 234.06C184.256 235.003 183.939 235.768 183.304 236.356C182.679 236.935 181.895 237.224 180.952 237.224C180.01 237.224 179.221 236.93 178.586 236.342C177.961 235.754 177.648 234.993 177.648 234.06ZM180.952 227.34C180.458 227.34 180.033 227.522 179.678 227.886C179.333 228.241 179.16 228.665 179.16 229.16C179.16 229.599 179.347 230.009 179.72 230.392C180.103 230.765 180.514 230.952 180.952 230.952C181.391 230.952 181.797 230.765 182.17 230.392C182.553 230.009 182.744 229.599 182.744 229.16C182.744 228.665 182.567 228.241 182.212 227.886C181.867 227.522 181.447 227.34 180.952 227.34ZM189.046 232.072C188.495 232.072 188.015 232.268 187.604 232.66C187.203 233.043 187.002 233.509 187.002 234.06C187.002 234.583 187.207 235.045 187.618 235.446C188.038 235.847 188.514 236.048 189.046 236.048C189.578 236.048 190.049 235.847 190.46 235.446C190.88 235.045 191.09 234.583 191.09 234.06C191.09 233.509 190.885 233.043 190.474 232.66C190.073 232.268 189.597 232.072 189.046 232.072ZM185.742 234.06C185.742 233.472 185.887 232.949 186.176 232.492C186.465 232.035 186.876 231.713 187.408 231.526C186.484 231.003 186.022 230.215 186.022 229.16C186.022 228.311 186.311 227.611 186.89 227.06C187.469 226.5 188.187 226.22 189.046 226.22C189.905 226.22 190.623 226.5 191.202 227.06C191.781 227.611 192.07 228.311 192.07 229.16C192.07 230.215 191.608 231.003 190.684 231.526C191.216 231.713 191.627 232.035 191.916 232.492C192.205 232.949 192.35 233.472 192.35 234.06C192.35 235.003 192.033 235.768 191.398 236.356C190.773 236.935 189.989 237.224 189.046 237.224C188.103 237.224 187.315 236.93 186.68 236.342C186.055 235.754 185.742 234.993 185.742 234.06ZM189.046 227.34C188.551 227.34 188.127 227.522 187.772 227.886C187.427 228.241 187.254 228.665 187.254 229.16C187.254 229.599 187.441 230.009 187.814 230.392C188.197 230.765 188.607 230.952 189.046 230.952C189.485 230.952 189.891 230.765 190.264 230.392C190.647 230.009 190.838 229.599 190.838 229.16C190.838 228.665 190.661 228.241 190.306 227.886C189.961 227.522 189.541 227.34 189.046 227.34Z" fill="#504B4C"/>
<path d="M264.289 237.224L263.337 236.566L266.151 232.772L266.123 232.744C265.861 232.875 265.521 232.94 265.101 232.94C264.242 232.94 263.514 232.618 262.917 231.974C262.329 231.321 262.035 230.56 262.035 229.692C262.035 228.721 262.371 227.9 263.043 227.228C263.724 226.556 264.55 226.22 265.521 226.22C266.454 226.22 267.271 226.551 267.971 227.214C268.68 227.877 269.035 228.67 269.035 229.594C269.035 230.425 268.652 231.353 267.887 232.38L264.289 237.224ZM265.535 231.82C266.16 231.82 266.687 231.61 267.117 231.19C267.555 230.761 267.775 230.233 267.775 229.608C267.775 229.029 267.555 228.516 267.117 228.068C266.687 227.62 266.188 227.396 265.619 227.396C264.993 227.396 264.447 227.611 263.981 228.04C263.523 228.469 263.295 228.992 263.295 229.608C263.295 230.205 263.519 230.723 263.967 231.162C264.415 231.601 264.937 231.82 265.535 231.82ZM273.25 231.96V230.868C274.632 230.868 275.322 230.303 275.322 229.174C275.322 228.642 275.15 228.208 274.804 227.872C274.459 227.536 274.02 227.368 273.488 227.368C273.022 227.368 272.63 227.503 272.312 227.774C272.004 228.045 271.813 228.413 271.738 228.88H270.436C270.698 227.107 271.729 226.22 273.53 226.22C274.408 226.22 275.126 226.472 275.686 226.976C276.284 227.499 276.582 228.194 276.582 229.062C276.582 230.145 276.134 230.938 275.238 231.442C276.237 231.918 276.736 232.791 276.736 234.06C276.736 235.021 276.41 235.796 275.756 236.384C275.14 236.944 274.342 237.224 273.362 237.224C272.504 237.224 271.771 236.967 271.164 236.454C270.52 235.922 270.18 235.236 270.142 234.396H271.416C271.482 234.909 271.706 235.32 272.088 235.628C272.48 235.927 272.938 236.076 273.46 236.076C274.039 236.076 274.52 235.88 274.902 235.488C275.285 235.087 275.476 234.592 275.476 234.004C275.476 233.341 275.271 232.823 274.86 232.45C274.45 232.077 273.913 231.913 273.25 231.96Z" fill="#504B4C"/>
<path d="M348.689 237.224L347.737 236.566L350.551 232.772L350.523 232.744C350.262 232.875 349.921 232.94 349.501 232.94C348.642 232.94 347.914 232.618 347.317 231.974C346.729 231.321 346.435 230.56 346.435 229.692C346.435 228.721 346.771 227.9 347.443 227.228C348.124 226.556 348.95 226.22 349.921 226.22C350.854 226.22 351.671 226.551 352.371 227.214C353.08 227.877 353.435 228.67 353.435 229.594C353.435 230.425 353.052 231.353 352.287 232.38L348.689 237.224ZM349.935 231.82C350.56 231.82 351.088 231.61 351.517 231.19C351.956 230.761 352.175 230.233 352.175 229.608C352.175 229.029 351.956 228.516 351.517 228.068C351.088 227.62 350.588 227.396 350.019 227.396C349.394 227.396 348.848 227.611 348.381 228.04C347.924 228.469 347.695 228.992 347.695 229.608C347.695 230.205 347.919 230.723 348.367 231.162C348.815 231.601 349.338 231.82 349.935 231.82ZM357.847 232.072C357.296 232.072 356.815 232.268 356.405 232.66C356.003 233.043 355.803 233.509 355.803 234.06C355.803 234.583 356.008 235.045 356.419 235.446C356.839 235.847 357.315 236.048 357.847 236.048C358.379 236.048 358.85 235.847 359.261 235.446C359.681 235.045 359.891 234.583 359.891 234.06C359.891 233.509 359.685 233.043 359.275 232.66C358.873 232.268 358.397 232.072 357.847 232.072ZM354.543 234.06C354.543 233.472 354.687 232.949 354.977 232.492C355.266 232.035 355.677 231.713 356.209 231.526C355.285 231.003 354.823 230.215 354.823 229.16C354.823 228.311 355.112 227.611 355.691 227.06C356.269 226.5 356.988 226.22 357.847 226.22C358.705 226.22 359.424 226.5 360.003 227.06C360.581 227.611 360.871 228.311 360.871 229.16C360.871 230.215 360.409 231.003 359.485 231.526C360.017 231.713 360.427 232.035 360.717 232.492C361.006 232.949 361.151 233.472 361.151 234.06C361.151 235.003 360.833 235.768 360.199 236.356C359.573 236.935 358.789 237.224 357.847 237.224C356.904 237.224 356.115 236.93 355.481 236.342C354.855 235.754 354.543 234.993 354.543 234.06ZM357.847 227.34C357.352 227.34 356.927 227.522 356.573 227.886C356.227 228.241 356.055 228.665 356.055 229.16C356.055 229.599 356.241 230.009 356.615 230.392C356.997 230.765 357.408 230.952 357.847 230.952C358.285 230.952 358.691 230.765 359.065 230.392C359.447 230.009 359.639 229.599 359.639 229.16C359.639 228.665 359.461 228.241 359.107 227.886C358.761 227.522 358.341 227.34 357.847 227.34Z" fill="#504B4C"/>
<path d="M429.615 227.648H427.781L428.509 226.444H430.875V237H429.615V227.648ZM438.198 237.224C436.976 237.224 436.024 236.575 435.342 235.278C434.792 234.233 434.516 233.047 434.516 231.722C434.516 230.378 434.787 229.188 435.328 228.152C436 226.864 436.957 226.22 438.198 226.22C439.44 226.22 440.396 226.864 441.068 228.152C441.61 229.188 441.88 230.378 441.88 231.722C441.88 233.047 441.605 234.233 441.054 235.278C440.373 236.575 439.421 237.224 438.198 237.224ZM438.198 227.34C437.358 227.34 436.719 227.886 436.28 228.978C435.944 229.809 435.776 230.719 435.776 231.708C435.776 232.697 435.944 233.603 436.28 234.424C436.719 235.507 437.358 236.048 438.198 236.048C439.038 236.048 439.678 235.507 440.116 234.424C440.452 233.603 440.62 232.697 440.62 231.708C440.62 230.719 440.452 229.809 440.116 228.978C439.678 227.886 439.038 227.34 438.198 227.34ZM446.096 231.96V230.868C447.477 230.868 448.168 230.303 448.168 229.174C448.168 228.642 447.995 228.208 447.65 227.872C447.305 227.536 446.866 227.368 446.334 227.368C445.867 227.368 445.475 227.503 445.158 227.774C444.85 228.045 444.659 228.413 444.584 228.88H443.282C443.543 227.107 444.575 226.22 446.376 226.22C447.253 226.22 447.972 226.472 448.532 226.976C449.129 227.499 449.428 228.194 449.428 229.062C449.428 230.145 448.98 230.938 448.084 231.442C449.083 231.918 449.582 232.791 449.582 234.06C449.582 235.021 449.255 235.796 448.602 236.384C447.986 236.944 447.188 237.224 446.208 237.224C445.349 237.224 444.617 236.967 444.01 236.454C443.366 235.922 443.025 235.236 442.988 234.396H444.262C444.327 234.909 444.551 235.32 444.934 235.628C445.326 235.927 445.783 236.076 446.306 236.076C446.885 236.076 447.365 235.88 447.748 235.488C448.131 235.087 448.322 234.592 448.322 234.004C448.322 233.341 448.117 232.823 447.706 232.45C447.295 232.077 446.759 231.913 446.096 231.96Z" fill="#504B4C"/>
<path d="M514.015 227.648H512.181L512.909 226.444H515.275V237H514.015V227.648ZM522.599 237.224C521.376 237.224 520.424 236.575 519.743 235.278C519.192 234.233 518.917 233.047 518.917 231.722C518.917 230.378 519.187 229.188 519.729 228.152C520.401 226.864 521.357 226.22 522.599 226.22C523.84 226.22 524.797 226.864 525.469 228.152C526.01 229.188 526.281 230.378 526.281 231.722C526.281 233.047 526.005 234.233 525.455 235.278C524.773 236.575 523.821 237.224 522.599 237.224ZM522.599 227.34C521.759 227.34 521.119 227.886 520.681 228.978C520.345 229.809 520.177 230.719 520.177 231.708C520.177 232.697 520.345 233.603 520.681 234.424C521.119 235.507 521.759 236.048 522.599 236.048C523.439 236.048 524.078 235.507 524.517 234.424C524.853 233.603 525.021 232.697 525.021 231.708C525.021 230.719 524.853 229.809 524.517 228.978C524.078 227.886 523.439 227.34 522.599 227.34ZM530.692 232.072C530.142 232.072 529.661 232.268 529.25 232.66C528.849 233.043 528.648 233.509 528.648 234.06C528.648 234.583 528.854 235.045 529.264 235.446C529.684 235.847 530.16 236.048 530.692 236.048C531.224 236.048 531.696 235.847 532.106 235.446C532.526 235.045 532.736 234.583 532.736 234.06C532.736 233.509 532.531 233.043 532.12 232.66C531.719 232.268 531.243 232.072 530.692 232.072ZM527.388 234.06C527.388 233.472 527.533 232.949 527.822 232.492C528.112 232.035 528.522 231.713 529.054 231.526C528.13 231.003 527.668 230.215 527.668 229.16C527.668 228.311 527.958 227.611 528.536 227.06C529.115 226.5 529.834 226.22 530.692 226.22C531.551 226.22 532.27 226.5 532.848 227.06C533.427 227.611 533.716 228.311 533.716 229.16C533.716 230.215 533.254 231.003 532.33 231.526C532.862 231.713 533.273 232.035 533.562 232.492C533.852 232.949 533.996 233.472 533.996 234.06C533.996 235.003 533.679 235.768 533.044 236.356C532.419 236.935 531.635 237.224 530.692 237.224C529.75 237.224 528.961 236.93 528.326 236.342C527.701 235.754 527.388 234.993 527.388 234.06ZM530.692 227.34C530.198 227.34 529.773 227.522 529.418 227.886C529.073 228.241 528.9 228.665 528.9 229.16C528.9 229.599 529.087 230.009 529.46 230.392C529.843 230.765 530.254 230.952 530.692 230.952C531.131 230.952 531.537 230.765 531.91 230.392C532.293 230.009 532.484 229.599 532.484 229.16C532.484 228.665 532.307 228.241 531.952 227.886C531.607 227.522 531.187 227.34 530.692 227.34Z" fill="#504B4C"/>
<path d="M598.415 227.648H596.581L597.309 226.444H599.675V237H598.415V227.648ZM606.509 227.648H604.675L605.403 226.444H607.769V237H606.509V227.648ZM614.897 231.96V230.868C616.278 230.868 616.969 230.303 616.969 229.174C616.969 228.642 616.796 228.208 616.451 227.872C616.106 227.536 615.667 227.368 615.135 227.368C614.668 227.368 614.276 227.503 613.959 227.774C613.651 228.045 613.46 228.413 613.385 228.88H612.083C612.344 227.107 613.376 226.22 615.177 226.22C616.054 226.22 616.773 226.472 617.333 226.976C617.93 227.499 618.229 228.194 618.229 229.062C618.229 230.145 617.781 230.938 616.885 231.442C617.884 231.918 618.383 232.791 618.383 234.06C618.383 235.021 618.056 235.796 617.403 236.384C616.787 236.944 615.989 237.224 615.009 237.224C614.15 237.224 613.418 236.967 612.811 236.454C612.167 235.922 611.826 235.236 611.789 234.396H613.063C613.128 234.909 613.352 235.32 613.735 235.628C614.127 235.927 614.584 236.076 615.107 236.076C615.686 236.076 616.166 235.88 616.549 235.488C616.932 235.087 617.123 234.592 617.123 234.004C617.123 233.341 616.918 232.823 616.507 232.45C616.096 232.077 615.56 231.913 614.897 231.96Z" fill="#504B4C"/>
<path d="M183.024 127.648H177.564V126.444H185.166L178.586 137.224L177.564 136.594L183.024 127.648ZM191.118 127.648H185.658V126.444H193.26L186.68 137.224L185.658 136.594L191.118 127.648Z" fill="#504B4C"/>
<path d="M265.353 132.072C264.802 132.072 264.321 132.268 263.911 132.66C263.509 133.043 263.309 133.509 263.309 134.06C263.309 134.583 263.514 135.045 263.925 135.446C264.345 135.847 264.821 136.048 265.353 136.048C265.885 136.048 266.356 135.847 266.767 135.446C267.187 135.045 267.397 134.583 267.397 134.06C267.397 133.509 267.191 133.043 266.781 132.66C266.379 132.268 265.903 132.072 265.353 132.072ZM262.049 134.06C262.049 133.472 262.193 132.949 262.483 132.492C262.772 132.035 263.183 131.713 263.715 131.526C262.791 131.003 262.329 130.215 262.329 129.16C262.329 128.311 262.618 127.611 263.197 127.06C263.775 126.5 264.494 126.22 265.353 126.22C266.211 126.22 266.93 126.5 267.509 127.06C268.087 127.611 268.377 128.311 268.377 129.16C268.377 130.215 267.915 131.003 266.991 131.526C267.523 131.713 267.933 132.035 268.223 132.492C268.512 132.949 268.657 133.472 268.657 134.06C268.657 135.003 268.339 135.768 267.705 136.356C267.079 136.935 266.295 137.224 265.353 137.224C264.41 137.224 263.621 136.93 262.987 136.342C262.361 135.754 262.049 134.993 262.049 134.06ZM265.353 127.34C264.858 127.34 264.433 127.522 264.079 127.886C263.733 128.241 263.561 128.665 263.561 129.16C263.561 129.599 263.747 130.009 264.121 130.392C264.503 130.765 264.914 130.952 265.353 130.952C265.791 130.952 266.197 130.765 266.571 130.392C266.953 130.009 267.145 129.599 267.145 129.16C267.145 128.665 266.967 128.241 266.613 127.886C266.267 127.522 265.847 127.34 265.353 127.34ZM273.25 131.96V130.868C274.632 130.868 275.322 130.303 275.322 129.174C275.322 128.642 275.15 128.208 274.804 127.872C274.459 127.536 274.02 127.368 273.488 127.368C273.022 127.368 272.63 127.503 272.312 127.774C272.004 128.045 271.813 128.413 271.738 128.88H270.436C270.698 127.107 271.729 126.22 273.53 126.22C274.408 126.22 275.126 126.472 275.686 126.976C276.284 127.499 276.582 128.194 276.582 129.062C276.582 130.145 276.134 130.938 275.238 131.442C276.237 131.918 276.736 132.791 276.736 134.06C276.736 135.021 276.41 135.796 275.756 136.384C275.14 136.944 274.342 137.224 273.362 137.224C272.504 137.224 271.771 136.967 271.164 136.454C270.52 135.922 270.18 135.236 270.142 134.396H271.416C271.482 134.909 271.706 135.32 272.088 135.628C272.48 135.927 272.938 136.076 273.46 136.076C274.039 136.076 274.52 135.88 274.902 135.488C275.285 135.087 275.476 134.592 275.476 134.004C275.476 133.341 275.271 132.823 274.86 132.45C274.45 132.077 273.913 131.913 273.25 131.96Z" fill="#504B4C"/>
<path d="M349.753 132.072C349.202 132.072 348.722 132.268 348.311 132.66C347.91 133.043 347.709 133.509 347.709 134.06C347.709 134.583 347.914 135.045 348.325 135.446C348.745 135.847 349.221 136.048 349.753 136.048C350.285 136.048 350.756 135.847 351.167 135.446C351.587 135.045 351.797 134.583 351.797 134.06C351.797 133.509 351.592 133.043 351.181 132.66C350.78 132.268 350.304 132.072 349.753 132.072ZM346.449 134.06C346.449 133.472 346.594 132.949 346.883 132.492C347.172 132.035 347.583 131.713 348.115 131.526C347.191 131.003 346.729 130.215 346.729 129.16C346.729 128.311 347.018 127.611 347.597 127.06C348.176 126.5 348.894 126.22 349.753 126.22C350.612 126.22 351.33 126.5 351.909 127.06C352.488 127.611 352.777 128.311 352.777 129.16C352.777 130.215 352.315 131.003 351.391 131.526C351.923 131.713 352.334 132.035 352.623 132.492C352.912 132.949 353.057 133.472 353.057 134.06C353.057 135.003 352.74 135.768 352.105 136.356C351.48 136.935 350.696 137.224 349.753 137.224C348.81 137.224 348.022 136.93 347.387 136.342C346.762 135.754 346.449 134.993 346.449 134.06ZM349.753 127.34C349.258 127.34 348.834 127.522 348.479 127.886C348.134 128.241 347.961 128.665 347.961 129.16C347.961 129.599 348.148 130.009 348.521 130.392C348.904 130.765 349.314 130.952 349.753 130.952C350.192 130.952 350.598 130.765 350.971 130.392C351.354 130.009 351.545 129.599 351.545 129.16C351.545 128.665 351.368 128.241 351.013 127.886C350.668 127.522 350.248 127.34 349.753 127.34ZM357.847 132.072C357.296 132.072 356.815 132.268 356.405 132.66C356.003 133.043 355.803 133.509 355.803 134.06C355.803 134.583 356.008 135.045 356.419 135.446C356.839 135.847 357.315 136.048 357.847 136.048C358.379 136.048 358.85 135.847 359.261 135.446C359.681 135.045 359.891 134.583 359.891 134.06C359.891 133.509 359.685 133.043 359.275 132.66C358.873 132.268 358.397 132.072 357.847 132.072ZM354.543 134.06C354.543 133.472 354.687 132.949 354.977 132.492C355.266 132.035 355.677 131.713 356.209 131.526C355.285 131.003 354.823 130.215 354.823 129.16C354.823 128.311 355.112 127.611 355.691 127.06C356.269 126.5 356.988 126.22 357.847 126.22C358.705 126.22 359.424 126.5 360.003 127.06C360.581 127.611 360.871 128.311 360.871 129.16C360.871 130.215 360.409 131.003 359.485 131.526C360.017 131.713 360.427 132.035 360.717 132.492C361.006 132.949 361.151 133.472 361.151 134.06C361.151 135.003 360.833 135.768 360.199 136.356C359.573 136.935 358.789 137.224 357.847 137.224C356.904 137.224 356.115 136.93 355.481 136.342C354.855 135.754 354.543 134.993 354.543 134.06ZM357.847 127.34C357.352 127.34 356.927 127.522 356.573 127.886C356.227 128.241 356.055 128.665 356.055 129.16C356.055 129.599 356.241 130.009 356.615 130.392C356.997 130.765 357.408 130.952 357.847 130.952C358.285 130.952 358.691 130.765 359.065 130.392C359.447 130.009 359.639 129.599 359.639 129.16C359.639 128.665 359.461 128.241 359.107 127.886C358.761 127.522 358.341 127.34 357.847 127.34Z" fill="#504B4C"/>
<path d="M433.087 137.224L432.135 136.566L434.949 132.772L434.921 132.744C434.66 132.875 434.319 132.94 433.899 132.94C433.041 132.94 432.313 132.618 431.715 131.974C431.127 131.321 430.833 130.56 430.833 129.692C430.833 128.721 431.169 127.9 431.841 127.228C432.523 126.556 433.349 126.22 434.319 126.22C435.253 126.22 436.069 126.551 436.769 127.214C437.479 127.877 437.833 128.67 437.833 129.594C437.833 130.425 437.451 131.353 436.685 132.38L433.087 137.224ZM434.333 131.82C434.959 131.82 435.486 131.61 435.915 131.19C436.354 130.761 436.573 130.233 436.573 129.608C436.573 129.029 436.354 128.516 435.915 128.068C435.486 127.62 434.987 127.396 434.417 127.396C433.792 127.396 433.246 127.611 432.779 128.04C432.322 128.469 432.093 128.992 432.093 129.608C432.093 130.205 432.317 130.723 432.765 131.162C433.213 131.601 433.736 131.82 434.333 131.82ZM442.049 131.96V130.868C443.431 130.868 444.121 130.303 444.121 129.174C444.121 128.642 443.949 128.208 443.603 127.872C443.258 127.536 442.819 127.368 442.287 127.368C441.821 127.368 441.429 127.503 441.111 127.774C440.803 128.045 440.612 128.413 440.537 128.88H439.235C439.497 127.107 440.528 126.22 442.329 126.22C443.207 126.22 443.925 126.472 444.485 126.976C445.083 127.499 445.381 128.194 445.381 129.062C445.381 130.145 444.933 130.938 444.037 131.442C445.036 131.918 445.535 132.791 445.535 134.06C445.535 135.021 445.209 135.796 444.555 136.384C443.939 136.944 443.141 137.224 442.161 137.224C441.303 137.224 440.57 136.967 439.963 136.454C439.319 135.922 438.979 135.236 438.941 134.396H440.215C440.281 134.909 440.505 135.32 440.887 135.628C441.279 135.927 441.737 136.076 442.259 136.076C442.838 136.076 443.319 135.88 443.701 135.488C444.084 135.087 444.275 134.592 444.275 134.004C444.275 133.341 444.07 132.823 443.659 132.45C443.249 132.077 442.712 131.913 442.049 131.96Z" fill="#504B4C"/>
<path d="M517.488 137.224L516.536 136.566L519.35 132.772L519.322 132.744C519.061 132.875 518.72 132.94 518.3 132.94C517.441 132.94 516.713 132.618 516.116 131.974C515.528 131.321 515.234 130.56 515.234 129.692C515.234 128.721 515.57 127.9 516.242 127.228C516.923 126.556 517.749 126.22 518.72 126.22C519.653 126.22 520.47 126.551 521.17 127.214C521.879 127.877 522.234 128.67 522.234 129.594C522.234 130.425 521.851 131.353 521.086 132.38L517.488 137.224ZM518.734 131.82C519.359 131.82 519.887 131.61 520.316 131.19C520.755 130.761 520.974 130.233 520.974 129.608C520.974 129.029 520.755 128.516 520.316 128.068C519.887 127.62 519.387 127.396 518.818 127.396C518.193 127.396 517.647 127.611 517.18 128.04C516.723 128.469 516.494 128.992 516.494 129.608C516.494 130.205 516.718 130.723 517.166 131.162C517.614 131.601 518.137 131.82 518.734 131.82ZM526.646 132.072C526.095 132.072 525.614 132.268 525.204 132.66C524.802 133.043 524.602 133.509 524.602 134.06C524.602 134.583 524.807 135.045 525.218 135.446C525.638 135.847 526.114 136.048 526.646 136.048C527.178 136.048 527.649 135.847 528.06 135.446C528.48 135.045 528.69 134.583 528.69 134.06C528.69 133.509 528.484 133.043 528.074 132.66C527.672 132.268 527.196 132.072 526.646 132.072ZM523.342 134.06C523.342 133.472 523.486 132.949 523.776 132.492C524.065 132.035 524.476 131.713 525.008 131.526C524.084 131.003 523.622 130.215 523.622 129.16C523.622 128.311 523.911 127.611 524.49 127.06C525.068 126.5 525.787 126.22 526.646 126.22C527.504 126.22 528.223 126.5 528.802 127.06C529.38 127.611 529.67 128.311 529.67 129.16C529.67 130.215 529.208 131.003 528.284 131.526C528.816 131.713 529.226 132.035 529.516 132.492C529.805 132.949 529.95 133.472 529.95 134.06C529.95 135.003 529.632 135.768 528.998 136.356C528.372 136.935 527.588 137.224 526.646 137.224C525.703 137.224 524.914 136.93 524.28 136.342C523.654 135.754 523.342 134.993 523.342 134.06ZM526.646 127.34C526.151 127.34 525.726 127.522 525.372 127.886C525.026 128.241 524.854 128.665 524.854 129.16C524.854 129.599 525.04 130.009 525.414 130.392C525.796 130.765 526.207 130.952 526.646 130.952C527.084 130.952 527.49 130.765 527.864 130.392C528.246 130.009 528.438 129.599 528.438 129.16C528.438 128.665 528.26 128.241 527.906 127.886C527.56 127.522 527.14 127.34 526.646 127.34Z" fill="#504B4C"/>
<path d="M598.415 127.648H596.581L597.309 126.444H599.675V137H598.415V127.648ZM606.999 137.224C605.776 137.224 604.824 136.575 604.143 135.278C603.592 134.233 603.317 133.047 603.317 131.722C603.317 130.378 603.588 129.188 604.129 128.152C604.801 126.864 605.758 126.22 606.999 126.22C608.24 126.22 609.197 126.864 609.869 128.152C610.41 129.188 610.681 130.378 610.681 131.722C610.681 133.047 610.406 134.233 609.855 135.278C609.174 136.575 608.222 137.224 606.999 137.224ZM606.999 127.34C606.159 127.34 605.52 127.886 605.081 128.978C604.745 129.809 604.577 130.719 604.577 131.708C604.577 132.697 604.745 133.603 605.081 134.424C605.52 135.507 606.159 136.048 606.999 136.048C607.839 136.048 608.478 135.507 608.917 134.424C609.253 133.603 609.421 132.697 609.421 131.708C609.421 130.719 609.253 129.809 608.917 128.978C608.478 127.886 607.839 127.34 606.999 127.34ZM614.897 131.96V130.868C616.278 130.868 616.969 130.303 616.969 129.174C616.969 128.642 616.796 128.208 616.451 127.872C616.106 127.536 615.667 127.368 615.135 127.368C614.668 127.368 614.276 127.503 613.959 127.774C613.651 128.045 613.46 128.413 613.385 128.88H612.083C612.344 127.107 613.376 126.22 615.177 126.22C616.054 126.22 616.773 126.472 617.333 126.976C617.93 127.499 618.229 128.194 618.229 129.062C618.229 130.145 617.781 130.938 616.885 131.442C617.884 131.918 618.383 132.791 618.383 134.06C618.383 135.021 618.056 135.796 617.403 136.384C616.787 136.944 615.989 137.224 615.009 137.224C614.15 137.224 613.418 136.967 612.811 136.454C612.167 135.922 611.826 135.236 611.789 134.396H613.063C613.128 134.909 613.352 135.32 613.735 135.628C614.127 135.927 614.584 136.076 615.107 136.076C615.686 136.076 616.166 135.88 616.549 135.488C616.932 135.087 617.123 134.592 617.123 134.004C617.123 133.341 616.918 132.823 616.507 132.45C616.096 132.077 615.56 131.913 614.897 131.96Z" fill="#504B4C"/>
<path d="M180.098 285.796H184.354V287H177.536L182.156 281.33C182.782 280.565 183.094 279.935 183.094 279.44C183.094 278.889 182.889 278.418 182.478 278.026C182.068 277.625 181.582 277.424 181.022 277.424C180.49 277.424 180.028 277.615 179.636 277.998C179.244 278.371 179.03 278.824 178.992 279.356H177.676C177.779 278.404 178.124 277.643 178.712 277.074C179.31 276.505 180.08 276.22 181.022 276.22C181.946 276.22 182.73 276.519 183.374 277.116C184.028 277.713 184.354 278.469 184.354 279.384C184.354 280.196 184.093 280.919 183.57 281.554L180.098 285.796ZM191.118 277.648H185.658V276.444H193.26L186.68 287.224L185.658 286.594L191.118 277.648Z" fill="#504B4C"/>
<path d="M265.157 281.96V280.868C266.538 280.868 267.229 280.303 267.229 279.174C267.229 278.642 267.056 278.208 266.711 277.872C266.365 277.536 265.927 277.368 265.395 277.368C264.928 277.368 264.536 277.503 264.219 277.774C263.911 278.045 263.719 278.413 263.645 278.88H262.343C262.604 277.107 263.635 276.22 265.437 276.22C266.314 276.22 267.033 276.472 267.593 276.976C268.19 277.499 268.489 278.194 268.489 279.062C268.489 280.145 268.041 280.938 267.145 281.442C268.143 281.918 268.643 282.791 268.643 284.06C268.643 285.021 268.316 285.796 267.663 286.384C267.047 286.944 266.249 287.224 265.269 287.224C264.41 287.224 263.677 286.967 263.071 286.454C262.427 285.922 262.086 285.236 262.049 284.396H263.323C263.388 284.909 263.612 285.32 263.995 285.628C264.387 285.927 264.844 286.076 265.367 286.076C265.945 286.076 266.426 285.88 266.809 285.488C267.191 285.087 267.383 284.592 267.383 284.004C267.383 283.341 267.177 282.823 266.767 282.45C266.356 282.077 265.819 281.913 265.157 281.96ZM272.592 285.796H276.848V287H270.03L274.65 281.33C275.276 280.565 275.588 279.935 275.588 279.44C275.588 278.889 275.383 278.418 274.972 278.026C274.562 277.625 274.076 277.424 273.516 277.424C272.984 277.424 272.522 277.615 272.13 277.998C271.738 278.371 271.524 278.824 271.486 279.356H270.17C270.273 278.404 270.618 277.643 271.206 277.074C271.804 276.505 272.574 276.22 273.516 276.22C274.44 276.22 275.224 276.519 275.868 277.116C276.522 277.713 276.848 278.469 276.848 279.384C276.848 280.196 276.587 280.919 276.064 281.554L272.592 285.796Z" fill="#504B4C"/>
<path d="M349.557 281.96V280.868C350.938 280.868 351.629 280.303 351.629 279.174C351.629 278.642 351.456 278.208 351.111 277.872C350.766 277.536 350.327 277.368 349.795 277.368C349.328 277.368 348.936 277.503 348.619 277.774C348.311 278.045 348.12 278.413 348.045 278.88H346.743C347.004 277.107 348.036 276.22 349.837 276.22C350.714 276.22 351.433 276.472 351.993 276.976C352.59 277.499 352.889 278.194 352.889 279.062C352.889 280.145 352.441 280.938 351.545 281.442C352.544 281.918 353.043 282.791 353.043 284.06C353.043 285.021 352.716 285.796 352.063 286.384C351.447 286.944 350.649 287.224 349.669 287.224C348.81 287.224 348.078 286.967 347.471 286.454C346.827 285.922 346.486 285.236 346.449 284.396H347.723C347.788 284.909 348.012 285.32 348.395 285.628C348.787 285.927 349.244 286.076 349.767 286.076C350.346 286.076 350.826 285.88 351.209 285.488C351.592 285.087 351.783 284.592 351.783 284.004C351.783 283.341 351.578 282.823 351.167 282.45C350.756 282.077 350.22 281.913 349.557 281.96ZM359.919 277.648H354.459V276.444H362.061L355.481 287.224L354.459 286.594L359.919 277.648Z" fill="#504B4C"/>
<path d="M436.671 284.312H437.875V285.46H436.671V287H435.411V285.46H430.203L436.671 275.996V284.312ZM435.411 284.312V279.958H435.383L432.415 284.312H435.411ZM441.391 285.796H445.647V287H438.829L443.449 281.33C444.075 280.565 444.387 279.935 444.387 279.44C444.387 278.889 444.182 278.418 443.771 278.026C443.361 277.625 442.875 277.424 442.315 277.424C441.783 277.424 441.321 277.615 440.929 277.998C440.537 278.371 440.323 278.824 440.285 279.356H438.969C439.072 278.404 439.417 277.643 440.005 277.074C440.603 276.505 441.373 276.22 442.315 276.22C443.239 276.22 444.023 276.519 444.667 277.116C445.321 277.713 445.647 278.469 445.647 279.384C445.647 280.196 445.386 280.919 444.863 281.554L441.391 285.796Z" fill="#504B4C"/>
<path d="M521.072 284.312H522.276V285.46H521.072V287H519.812V285.46H514.604L521.072 275.996V284.312ZM519.812 284.312V279.958H519.784L516.816 284.312H519.812ZM528.718 277.648H523.258V276.444H530.86L524.28 287.224L523.258 286.594L528.718 277.648Z" fill="#504B4C"/>
<path d="M606.298 277.648H602.98L602.322 279.818L603.064 279.776C604.063 279.72 604.889 280.079 605.542 280.854C606.149 281.582 606.452 282.455 606.452 283.472C606.452 284.573 606.079 285.474 605.332 286.174C604.586 286.874 603.657 287.224 602.546 287.224C601.884 287.224 601.263 287.061 600.684 286.734C600.078 286.398 599.625 285.945 599.326 285.376L600.306 284.452C600.465 284.891 600.773 285.264 601.23 285.572C601.697 285.871 602.168 286.02 602.644 286.02C603.354 286.02 603.956 285.768 604.45 285.264C604.945 284.76 605.192 284.149 605.192 283.43C605.192 282.749 604.945 282.161 604.45 281.666C603.956 281.171 603.363 280.924 602.672 280.924C601.851 280.924 601.193 281.237 600.698 281.862H600.446L602.07 276.444H606.298V277.648ZM610.192 285.796H614.448V287H607.63L612.25 281.33C612.875 280.565 613.188 279.935 613.188 279.44C613.188 278.889 612.983 278.418 612.572 278.026C612.161 277.625 611.676 277.424 611.116 277.424C610.584 277.424 610.122 277.615 609.73 277.998C609.338 278.371 609.123 278.824 609.086 279.356H607.77C607.873 278.404 608.218 277.643 608.806 277.074C609.403 276.505 610.173 276.22 611.116 276.22C612.04 276.22 612.824 276.519 613.468 277.116C614.121 277.713 614.448 278.469 614.448 279.384C614.448 280.196 614.187 280.919 613.664 281.554L610.192 285.796Z" fill="#504B4C"/>
<path d="M182.212 176.22L183.164 176.864L180.35 180.672L180.378 180.7C180.714 180.532 181.06 180.448 181.414 180.448C182.273 180.448 182.996 180.784 183.584 181.456C184.172 182.119 184.466 182.884 184.466 183.752C184.466 184.723 184.126 185.544 183.444 186.216C182.772 186.888 181.951 187.224 180.98 187.224C180.047 187.224 179.226 186.893 178.516 186.23C177.816 185.567 177.466 184.774 177.466 183.85C177.466 183.019 177.849 182.091 178.614 181.064L182.212 176.22ZM180.966 186.048C181.564 186.048 182.086 185.838 182.534 185.418C182.982 184.989 183.206 184.48 183.206 183.892C183.206 183.285 182.982 182.758 182.534 182.31C182.096 181.853 181.573 181.624 180.966 181.624C180.388 181.624 179.87 181.848 179.412 182.296C178.955 182.735 178.726 183.243 178.726 183.822C178.726 184.429 178.946 184.951 179.384 185.39C179.832 185.829 180.36 186.048 180.966 186.048ZM189.046 187.224C187.823 187.224 186.871 186.575 186.19 185.278C185.639 184.233 185.364 183.047 185.364 181.722C185.364 180.378 185.635 179.188 186.176 178.152C186.848 176.864 187.805 176.22 189.046 176.22C190.287 176.22 191.244 176.864 191.916 178.152C192.457 179.188 192.728 180.378 192.728 181.722C192.728 183.047 192.453 184.233 191.902 185.278C191.221 186.575 190.269 187.224 189.046 187.224ZM189.046 177.34C188.206 177.34 187.567 177.886 187.128 178.978C186.792 179.809 186.624 180.719 186.624 181.708C186.624 182.697 186.792 183.603 187.128 184.424C187.567 185.507 188.206 186.048 189.046 186.048C189.886 186.048 190.525 185.507 190.964 184.424C191.3 183.603 191.468 182.697 191.468 181.708C191.468 180.719 191.3 179.809 190.964 178.978C190.525 177.886 189.886 177.34 189.046 177.34Z" fill="#504B4C"/>
<path d="M266.613 176.22L267.565 176.864L264.751 180.672L264.779 180.7C265.115 180.532 265.46 180.448 265.815 180.448C266.673 180.448 267.397 180.784 267.985 181.456C268.573 182.119 268.867 182.884 268.867 183.752C268.867 184.723 268.526 185.544 267.845 186.216C267.173 186.888 266.351 187.224 265.381 187.224C264.447 187.224 263.626 186.893 262.917 186.23C262.217 185.567 261.867 184.774 261.867 183.85C261.867 183.019 262.249 182.091 263.015 181.064L266.613 176.22ZM265.367 186.048C265.964 186.048 266.487 185.838 266.935 185.418C267.383 184.989 267.607 184.48 267.607 183.892C267.607 183.285 267.383 182.758 266.935 182.31C266.496 181.853 265.973 181.624 265.367 181.624C264.788 181.624 264.27 181.848 263.813 182.296C263.355 182.735 263.127 183.243 263.127 183.822C263.127 184.429 263.346 184.951 263.785 185.39C264.233 185.829 264.76 186.048 265.367 186.048ZM276.792 177.648H273.474L272.816 179.818L273.558 179.776C274.557 179.72 275.383 180.079 276.036 180.854C276.643 181.582 276.946 182.455 276.946 183.472C276.946 184.573 276.573 185.474 275.826 186.174C275.08 186.874 274.151 187.224 273.04 187.224C272.378 187.224 271.757 187.061 271.178 186.734C270.572 186.398 270.119 185.945 269.82 185.376L270.8 184.452C270.959 184.891 271.267 185.264 271.724 185.572C272.191 185.871 272.662 186.02 273.138 186.02C273.848 186.02 274.45 185.768 274.944 185.264C275.439 184.76 275.686 184.149 275.686 183.43C275.686 182.749 275.439 182.161 274.944 181.666C274.45 181.171 273.857 180.924 273.166 180.924C272.345 180.924 271.687 181.237 271.192 181.862H270.94L272.564 176.444H276.792V177.648Z" fill="#504B4C"/>
<path d="M351.825 177.648H346.365V176.444H353.967L347.387 187.224L346.365 186.594L351.825 177.648ZM357.847 187.224C356.624 187.224 355.672 186.575 354.991 185.278C354.44 184.233 354.165 183.047 354.165 181.722C354.165 180.378 354.435 179.188 354.977 178.152C355.649 176.864 356.605 176.22 357.847 176.22C359.088 176.22 360.045 176.864 360.717 178.152C361.258 179.188 361.529 180.378 361.529 181.722C361.529 183.047 361.253 184.233 360.703 185.278C360.021 186.575 359.069 187.224 357.847 187.224ZM357.847 177.34C357.007 177.34 356.367 177.886 355.929 178.978C355.593 179.809 355.425 180.719 355.425 181.708C355.425 182.697 355.593 183.603 355.929 184.424C356.367 185.507 357.007 186.048 357.847 186.048C358.687 186.048 359.326 185.507 359.765 184.424C360.101 183.603 360.269 182.697 360.269 181.708C360.269 180.719 360.101 179.809 359.765 178.978C359.326 177.886 358.687 177.34 357.847 177.34Z" fill="#504B4C"/>
<path d="M436.223 177.648H430.763V176.444H438.365L431.785 187.224L430.763 186.594L436.223 177.648ZM445.591 177.648H442.273L441.615 179.818L442.357 179.776C443.356 179.72 444.182 180.079 444.835 180.854C445.442 181.582 445.745 182.455 445.745 183.472C445.745 184.573 445.372 185.474 444.625 186.174C443.879 186.874 442.95 187.224 441.839 187.224C441.177 187.224 440.556 187.061 439.977 186.734C439.371 186.398 438.918 185.945 438.619 185.376L439.599 184.452C439.758 184.891 440.066 185.264 440.523 185.572C440.99 185.871 441.461 186.02 441.937 186.02C442.647 186.02 443.249 185.768 443.743 185.264C444.238 184.76 444.485 184.149 444.485 183.43C444.485 182.749 444.238 182.161 443.743 181.666C443.249 181.171 442.656 180.924 441.965 180.924C441.144 180.924 440.486 181.237 439.991 181.862H439.739L441.363 176.444H445.591V177.648Z" fill="#504B4C"/>
<path d="M518.552 182.072C518.001 182.072 517.521 182.268 517.11 182.66C516.709 183.043 516.508 183.509 516.508 184.06C516.508 184.583 516.713 185.045 517.124 185.446C517.544 185.847 518.02 186.048 518.552 186.048C519.084 186.048 519.555 185.847 519.966 185.446C520.386 185.045 520.596 184.583 520.596 184.06C520.596 183.509 520.391 183.043 519.98 182.66C519.579 182.268 519.103 182.072 518.552 182.072ZM515.248 184.06C515.248 183.472 515.393 182.949 515.682 182.492C515.971 182.035 516.382 181.713 516.914 181.526C515.99 181.003 515.528 180.215 515.528 179.16C515.528 178.311 515.817 177.611 516.396 177.06C516.975 176.5 517.693 176.22 518.552 176.22C519.411 176.22 520.129 176.5 520.708 177.06C521.287 177.611 521.576 178.311 521.576 179.16C521.576 180.215 521.114 181.003 520.19 181.526C520.722 181.713 521.133 182.035 521.422 182.492C521.711 182.949 521.856 183.472 521.856 184.06C521.856 185.003 521.539 185.768 520.904 186.356C520.279 186.935 519.495 187.224 518.552 187.224C517.609 187.224 516.821 186.93 516.186 186.342C515.561 185.754 515.248 184.993 515.248 184.06ZM518.552 177.34C518.057 177.34 517.633 177.522 517.278 177.886C516.933 178.241 516.76 178.665 516.76 179.16C516.76 179.599 516.947 180.009 517.32 180.392C517.703 180.765 518.113 180.952 518.552 180.952C518.991 180.952 519.397 180.765 519.77 180.392C520.153 180.009 520.344 179.599 520.344 179.16C520.344 178.665 520.167 178.241 519.812 177.886C519.467 177.522 519.047 177.34 518.552 177.34ZM526.646 187.224C525.423 187.224 524.471 186.575 523.79 185.278C523.239 184.233 522.964 183.047 522.964 181.722C522.964 180.378 523.234 179.188 523.776 178.152C524.448 176.864 525.404 176.22 526.646 176.22C527.887 176.22 528.844 176.864 529.516 178.152C530.057 179.188 530.328 180.378 530.328 181.722C530.328 183.047 530.052 184.233 529.502 185.278C528.82 186.575 527.868 187.224 526.646 187.224ZM526.646 177.34C525.806 177.34 525.166 177.886 524.728 178.978C524.392 179.809 524.224 180.719 524.224 181.708C524.224 182.697 524.392 183.603 524.728 184.424C525.166 185.507 525.806 186.048 526.646 186.048C527.486 186.048 528.125 185.507 528.564 184.424C528.9 183.603 529.068 182.697 529.068 181.708C529.068 180.719 528.9 179.809 528.564 178.978C528.125 177.886 527.486 177.34 526.646 177.34Z" fill="#504B4C"/>
<path d="M602.952 182.072C602.402 182.072 601.921 182.268 601.51 182.66C601.109 183.043 600.908 183.509 600.908 184.06C600.908 184.583 601.114 185.045 601.524 185.446C601.944 185.847 602.42 186.048 602.952 186.048C603.484 186.048 603.956 185.847 604.366 185.446C604.786 185.045 604.996 184.583 604.996 184.06C604.996 183.509 604.791 183.043 604.38 182.66C603.979 182.268 603.503 182.072 602.952 182.072ZM599.648 184.06C599.648 183.472 599.793 182.949 600.082 182.492C600.372 182.035 600.782 181.713 601.314 181.526C600.39 181.003 599.928 180.215 599.928 179.16C599.928 178.311 600.218 177.611 600.796 177.06C601.375 176.5 602.094 176.22 602.952 176.22C603.811 176.22 604.53 176.5 605.108 177.06C605.687 177.611 605.976 178.311 605.976 179.16C605.976 180.215 605.514 181.003 604.59 181.526C605.122 181.713 605.533 182.035 605.822 182.492C606.112 182.949 606.256 183.472 606.256 184.06C606.256 185.003 605.939 185.768 605.304 186.356C604.679 186.935 603.895 187.224 602.952 187.224C602.01 187.224 601.221 186.93 600.586 186.342C599.961 185.754 599.648 184.993 599.648 184.06ZM602.952 177.34C602.458 177.34 602.033 177.522 601.678 177.886C601.333 178.241 601.16 178.665 601.16 179.16C601.16 179.599 601.347 180.009 601.72 180.392C602.103 180.765 602.514 180.952 602.952 180.952C603.391 180.952 603.797 180.765 604.17 180.392C604.553 180.009 604.744 179.599 604.744 179.16C604.744 178.665 604.567 178.241 604.212 177.886C603.867 177.522 603.447 177.34 602.952 177.34ZM614.392 177.648H611.074L610.416 179.818L611.158 179.776C612.157 179.72 612.983 180.079 613.636 180.854C614.243 181.582 614.546 182.455 614.546 183.472C614.546 184.573 614.173 185.474 613.426 186.174C612.679 186.874 611.751 187.224 610.64 187.224C609.977 187.224 609.357 187.061 608.778 186.734C608.171 186.398 607.719 185.945 607.42 185.376L608.4 184.452C608.559 184.891 608.867 185.264 609.324 185.572C609.791 185.871 610.262 186.02 610.738 186.02C611.447 186.02 612.049 185.768 612.544 185.264C613.039 184.76 613.286 184.149 613.286 183.43C613.286 182.749 613.039 182.161 612.544 181.666C612.049 181.171 611.457 180.924 610.766 180.924C609.945 180.924 609.287 181.237 608.792 181.862H608.54L610.164 176.444H614.392V177.648Z" fill="#504B4C"/>
<rect width="149" height="310" transform="translate(1 1)" fill="#DFDFE1"/>
<path d="M27.0929 26.22C28.6142 26.22 29.9162 26.7567 30.9989 27.83C32.0815 28.9033 32.6229 30.2007 32.6229 31.722C32.6229 33.2807 32.0909 34.5873 31.0269 35.642C29.9629 36.6967 28.6515 37.224 27.0929 37.224C25.5342 37.224 24.2229 36.6967 23.1589 35.642C22.0949 34.5873 21.5629 33.2807 21.5629 31.722C21.5629 30.2007 22.1042 28.9033 23.1869 27.83C24.2695 26.7567 25.5715 26.22 27.0929 26.22ZM27.0929 35.992C28.2689 35.992 29.2629 35.5767 30.0749 34.746C30.8962 33.906 31.3069 32.898 31.3069 31.722C31.3069 30.5087 30.9055 29.496 30.1029 28.684C29.3095 27.8627 28.3062 27.452 27.0929 27.452C25.8889 27.452 24.8855 27.8627 24.0829 28.684C23.2802 29.5053 22.8789 30.518 22.8789 31.722C22.8789 32.898 23.2849 33.906 24.0969 34.746C24.9182 35.5767 25.9169 35.992 27.0929 35.992ZM33.7166 26.444H35.0326V32.674C35.0326 34.886 35.882 35.992 37.5806 35.992C39.2793 35.992 40.1286 34.886 40.1286 32.674V26.444H41.4446V33.122C41.4446 34.326 41.104 35.3013 40.4226 36.048C39.7226 36.832 38.7753 37.224 37.5806 37.224C36.386 37.224 35.4386 36.832 34.7386 36.048C34.0573 35.3013 33.7166 34.326 33.7166 33.122V26.444ZM46.4979 32.408L49.8299 37H48.2339L45.1259 32.534H44.5799V37H43.2639V26.444H44.8599C46.1479 26.444 47.0765 26.6073 47.6459 26.934C48.0845 27.186 48.4252 27.5407 48.6679 27.998C48.9105 28.446 49.0319 28.9313 49.0319 29.454C49.0319 30.2287 48.7985 30.8913 48.3319 31.442C47.8652 31.9927 47.2539 32.3147 46.4979 32.408ZM44.5799 27.62V31.442H44.9999C46.8665 31.442 47.7999 30.798 47.7999 29.51C47.7999 28.25 46.8432 27.62 44.9299 27.62H44.5799ZM60.6523 27.816L59.6023 28.446C59.2103 27.7833 58.6456 27.452 57.9083 27.452C57.4603 27.452 57.0636 27.5873 56.7183 27.858C56.3356 28.1473 56.1443 28.5113 56.1443 28.95C56.1443 29.5753 56.6343 30.0793 57.6143 30.462L58.3703 30.756C59.2103 31.0827 59.8356 31.4653 60.2463 31.904C60.741 32.436 60.9883 33.1127 60.9883 33.934C60.9883 34.886 60.6663 35.6747 60.0223 36.3C59.3783 36.916 58.5756 37.224 57.6143 37.224C56.7556 37.224 56.023 36.9487 55.4163 36.398C54.819 35.838 54.4643 35.1287 54.3523 34.27L55.6823 33.99C55.673 34.5687 55.8643 35.0493 56.2563 35.432C56.6576 35.8053 57.1476 35.992 57.7263 35.992C58.2863 35.992 58.7483 35.7913 59.1123 35.39C59.4856 34.9887 59.6723 34.5033 59.6723 33.934C59.6723 33.4207 59.481 32.9913 59.0983 32.646C58.837 32.4127 58.4216 32.1747 57.8523 31.932L57.1243 31.624C55.5936 30.98 54.8283 30.0887 54.8283 28.95C54.8283 28.1287 55.1456 27.4567 55.7803 26.934C56.3776 26.458 57.0963 26.22 57.9363 26.22C59.1496 26.22 60.055 26.752 60.6523 27.816ZM63.7058 26.444V37H62.3898V26.444H63.7058ZM66.9457 35.796H72.2937V37H64.8037L70.1517 27.648H65.5597V26.444H72.2937L66.9457 35.796ZM73.4103 37V26.444H79.0803V27.648H74.7263V30.602H78.9543V31.806H74.7263V35.796H79.0803V37H73.4103Z" fill="#504B4C"/>
<path d="M30.0465 76.934V78.46C29.2719 77.7693 28.3432 77.424 27.2605 77.424C26.0845 77.424 25.0952 77.8487 24.2925 78.698C23.4899 79.538 23.0885 80.5507 23.0885 81.736C23.0885 82.912 23.4852 83.92 24.2785 84.76C25.0719 85.6 26.0565 86.02 27.2325 86.02C28.2965 86.02 29.2345 85.656 30.0465 84.928V86.482C29.2065 86.9767 28.2825 87.224 27.2745 87.224C25.7439 87.224 24.4419 86.6967 23.3685 85.642C22.3045 84.5873 21.7725 83.2993 21.7725 81.778C21.7725 80.21 22.3139 78.894 23.3965 77.83C24.4885 76.7567 25.8185 76.22 27.3865 76.22C28.3852 76.22 29.2719 76.458 30.0465 76.934ZM32.8204 80.7H37.8464V76.444H39.1624V87H37.8464V81.932H32.8204V87H31.5044V76.444H32.8204V80.7ZM41.0637 87V76.444H46.7337V77.648H42.3797V80.602H46.6077V81.806H42.3797V85.796H46.7337V87H41.0637ZM54.1044 77.816L53.0544 78.446C52.6624 77.7833 52.0978 77.452 51.3604 77.452C50.9124 77.452 50.5158 77.5873 50.1704 77.858C49.7878 78.1473 49.5964 78.5113 49.5964 78.95C49.5964 79.5753 50.0864 80.0793 51.0664 80.462L51.8224 80.756C52.6624 81.0827 53.2878 81.4653 53.6984 81.904C54.1931 82.436 54.4404 83.1127 54.4404 83.934C54.4404 84.886 54.1184 85.6747 53.4744 86.3C52.8304 86.916 52.0278 87.224 51.0664 87.224C50.2078 87.224 49.4751 86.9487 48.8684 86.398C48.2711 85.838 47.9164 85.1287 47.8044 84.27L49.1344 83.99C49.1251 84.5687 49.3164 85.0493 49.7084 85.432C50.1098 85.8053 50.5998 85.992 51.1784 85.992C51.7384 85.992 52.2004 85.7913 52.5644 85.39C52.9378 84.9887 53.1244 84.5033 53.1244 83.934C53.1244 83.4207 52.9331 82.9913 52.5504 82.646C52.2891 82.4127 51.8738 82.1747 51.3044 81.932L50.5764 81.624C49.0458 80.98 48.2804 80.0887 48.2804 78.95C48.2804 78.1287 48.5978 77.4567 49.2324 76.934C49.8298 76.458 50.5484 76.22 51.3884 76.22C52.6018 76.22 53.5071 76.752 54.1044 77.816ZM58.726 77.648V87H57.41V77.648H54.904V76.444H61.232V77.648H58.726ZM67.5616 75.674L68.5976 76.444C67.795 78.124 67.3936 80.2053 67.3936 82.688C67.3936 85.1707 67.795 87.252 68.5976 88.932L67.5616 89.702C66.591 87.798 66.1056 85.46 66.1056 82.688C66.1056 79.8973 66.591 77.5593 67.5616 75.674ZM78.0895 76.934V78.46C77.3148 77.7693 76.3862 77.424 75.3035 77.424C74.1275 77.424 73.1382 77.8487 72.3355 78.698C71.5328 79.538 71.1315 80.5507 71.1315 81.736C71.1315 82.912 71.5282 83.92 72.3215 84.76C73.1148 85.6 74.0995 86.02 75.2755 86.02C76.3395 86.02 77.2775 85.656 78.0895 84.928V86.482C77.2495 86.9767 76.3255 87.224 75.3175 87.224C73.7868 87.224 72.4848 86.6967 71.4115 85.642C70.3475 84.5873 69.8155 83.2993 69.8155 81.778C69.8155 80.21 70.3568 78.894 71.4395 77.83C72.5315 76.7567 73.8615 76.22 75.4295 76.22C76.4282 76.22 77.3148 76.458 78.0895 76.934ZM84.6154 87.224L81.4514 80.028H81.4234L80.1914 87H78.8334L80.9894 75.996L84.6154 84.312L88.2414 75.996L90.3974 87H89.0394L87.8074 80.028H87.7794L84.6154 87.224ZM91.3576 76.444L92.3936 75.674C93.3642 77.5593 93.8496 79.8973 93.8496 82.688C93.8496 85.46 93.3642 87.798 92.3936 89.702L91.3576 88.932C92.1602 87.252 92.5616 85.1707 92.5616 82.688C92.5616 80.2053 92.1602 78.124 91.3576 76.444Z" fill="#504B4C"/>
<path d="M22.3743 126.444L25.3283 134.004L28.3103 126.22L31.2923 134.004L34.2463 126.444H35.6743L31.2923 137.42L28.3103 129.678L25.3283 137.42L20.9463 126.444H22.3743ZM42.8471 134.354H38.0031L36.7991 137H35.3851L40.4251 125.996L45.4651 137H44.0511L42.8471 134.354ZM42.3011 133.15L40.4251 128.88L38.5491 133.15H42.3011ZM47.6228 126.444V137H46.3068V126.444H47.6228ZM55.3427 127.816L54.2927 128.446C53.9007 127.783 53.3361 127.452 52.5987 127.452C52.1507 127.452 51.7541 127.587 51.4087 127.858C51.0261 128.147 50.8347 128.511 50.8347 128.95C50.8347 129.575 51.3247 130.079 52.3047 130.462L53.0607 130.756C53.9007 131.083 54.5261 131.465 54.9367 131.904C55.4314 132.436 55.6787 133.113 55.6787 133.934C55.6787 134.886 55.3567 135.675 54.7127 136.3C54.0687 136.916 53.2661 137.224 52.3047 137.224C51.4461 137.224 50.7134 136.949 50.1067 136.398C49.5094 135.838 49.1547 135.129 49.0427 134.27L50.3727 133.99C50.3634 134.569 50.5547 135.049 50.9467 135.432C51.3481 135.805 51.8381 135.992 52.4167 135.992C52.9767 135.992 53.4387 135.791 53.8027 135.39C54.1761 134.989 54.3627 134.503 54.3627 133.934C54.3627 133.421 54.1714 132.991 53.7887 132.646C53.5274 132.413 53.1121 132.175 52.5427 131.932L51.8147 131.624C50.2841 130.98 49.5187 130.089 49.5187 128.95C49.5187 128.129 49.8361 127.457 50.4707 126.934C51.0681 126.458 51.7867 126.22 52.6267 126.22C53.8401 126.22 54.7454 126.752 55.3427 127.816ZM59.9643 127.648V137H58.6483V127.648H56.1423V126.444H62.4703V127.648H59.9643ZM68.7999 125.674L69.8359 126.444C69.0332 128.124 68.6319 130.205 68.6319 132.688C68.6319 135.171 69.0332 137.252 69.8359 138.932L68.7999 139.702C67.8292 137.798 67.3439 135.46 67.3439 132.688C67.3439 129.897 67.8292 127.559 68.7999 125.674ZM79.3278 126.934V128.46C78.5531 127.769 77.6245 127.424 76.5418 127.424C75.3658 127.424 74.3765 127.849 73.5738 128.698C72.7711 129.538 72.3698 130.551 72.3698 131.736C72.3698 132.912 72.7665 133.92 73.5598 134.76C74.3531 135.6 75.3378 136.02 76.5138 136.02C77.5778 136.02 78.5158 135.656 79.3278 134.928V136.482C78.4878 136.977 77.5638 137.224 76.5558 137.224C75.0251 137.224 73.7231 136.697 72.6498 135.642C71.5858 134.587 71.0538 133.299 71.0538 131.778C71.0538 130.21 71.5951 128.894 72.6778 127.83C73.7698 126.757 75.0998 126.22 76.6678 126.22C77.6665 126.22 78.5531 126.458 79.3278 126.934ZM85.8536 137.224L82.6896 130.028H82.6616L81.4296 137H80.0716L82.2276 125.996L85.8536 134.312L89.4796 125.996L91.6356 137H90.2776L89.0456 130.028H89.0176L85.8536 137.224ZM92.5959 126.444L93.6319 125.674C94.6025 127.559 95.0879 129.897 95.0879 132.688C95.0879 135.46 94.6025 137.798 93.6319 139.702L92.5959 138.932C93.3985 137.252 93.7999 135.171 93.7999 132.688C93.7999 130.205 93.3985 128.124 92.5959 126.444Z" fill="#504B4C"/>
<path d="M22.2981 176.444L25.2521 184.004L28.2341 176.22L31.2161 184.004L34.1701 176.444H35.5981L31.2161 187.42L28.2341 179.678L25.2521 187.42L20.8701 176.444H22.2981ZM42.7709 184.354H37.9269L36.7229 187H35.3089L40.3489 175.996L45.3889 187H43.9749L42.7709 184.354ZM42.2249 183.15L40.3489 178.88L38.4729 183.15H42.2249ZM47.5466 176.444V187H46.2306V176.444H47.5466ZM55.2666 177.816L54.2166 178.446C53.8246 177.783 53.2599 177.452 52.5226 177.452C52.0746 177.452 51.6779 177.587 51.3326 177.858C50.9499 178.147 50.7586 178.511 50.7586 178.95C50.7586 179.575 51.2486 180.079 52.2286 180.462L52.9846 180.756C53.8246 181.083 54.4499 181.465 54.8606 181.904C55.3552 182.436 55.6026 183.113 55.6026 183.934C55.6026 184.886 55.2806 185.675 54.6366 186.3C53.9926 186.916 53.1899 187.224 52.2286 187.224C51.3699 187.224 50.6372 186.949 50.0306 186.398C49.4332 185.838 49.0786 185.129 48.9666 184.27L50.2966 183.99C50.2872 184.569 50.4786 185.049 50.8706 185.432C51.2719 185.805 51.7619 185.992 52.3406 185.992C52.9006 185.992 53.3626 185.791 53.7266 185.39C54.0999 184.989 54.2866 184.503 54.2866 183.934C54.2866 183.421 54.0952 182.991 53.7126 182.646C53.4512 182.413 53.0359 182.175 52.4666 181.932L51.7386 181.624C50.2079 180.98 49.4426 180.089 49.4426 178.95C49.4426 178.129 49.7599 177.457 50.3946 176.934C50.9919 176.458 51.7106 176.22 52.5506 176.22C53.7639 176.22 54.6692 176.752 55.2666 177.816ZM59.8881 177.648V187H58.5721V177.648H56.0661V176.444H62.3941V177.648H59.8881ZM64.7469 182.576V187H63.4309V176.444H64.9429C66.2589 176.444 67.2435 176.626 67.8969 176.99C68.7649 177.466 69.1989 178.301 69.1989 179.496C69.1989 180.551 68.8349 181.344 68.1069 181.876C67.4629 182.343 66.5949 182.576 65.5029 182.576H64.7469ZM64.7469 177.62V181.4H65.1669C67.0335 181.4 67.9669 180.756 67.9669 179.468C67.9669 178.236 67.0102 177.62 65.0969 177.62H64.7469ZM76.7045 184.354H71.8605L70.6565 187H69.2425L74.2825 175.996L79.3225 187H77.9085L76.7045 184.354ZM76.1585 183.15L74.2825 178.88L72.4065 183.15H76.1585ZM80.0802 187V175.94L88.0042 184.242V176.444H89.3202V187.434L81.3962 179.132V187H80.0802ZM94.0404 177.648V187H92.7244V177.648H90.2184V176.444H96.5464V177.648H94.0404ZM102.876 175.674L103.912 176.444C103.109 178.124 102.708 180.205 102.708 182.688C102.708 185.171 103.109 187.252 103.912 188.932L102.876 189.702C101.905 187.798 101.42 185.46 101.42 182.688C101.42 179.897 101.905 177.559 102.876 175.674ZM113.404 176.934V178.46C112.629 177.769 111.701 177.424 110.618 177.424C109.442 177.424 108.453 177.849 107.65 178.698C106.847 179.538 106.446 180.551 106.446 181.736C106.446 182.912 106.843 183.92 107.636 184.76C108.429 185.6 109.414 186.02 110.59 186.02C111.654 186.02 112.592 185.656 113.404 184.928V186.482C112.564 186.977 111.64 187.224 110.632 187.224C109.101 187.224 107.799 186.697 106.726 185.642C105.662 184.587 105.13 183.299 105.13 181.778C105.13 180.21 105.671 178.894 106.754 177.83C107.846 176.757 109.176 176.22 110.744 176.22C111.743 176.22 112.629 176.458 113.404 176.934ZM119.93 187.224L116.766 180.028H116.738L115.506 187H114.148L116.304 175.996L119.93 184.312L123.556 175.996L125.712 187H124.354L123.122 180.028H123.094L119.93 187.224ZM126.672 176.444L127.708 175.674C128.679 177.559 129.164 179.897 129.164 182.688C129.164 185.46 128.679 187.798 127.708 189.702L126.672 188.932C127.475 187.252 127.876 185.171 127.876 182.688C127.876 180.205 127.475 178.124 126.672 176.444Z" fill="#504B4C"/>
<path d="M23.7022 230.7H28.7282V226.444H30.0442V237H28.7282V231.932H23.7022V237H22.3862V226.444H23.7022V230.7ZM33.2195 226.444V237H31.9035V226.444H33.2195ZM36.5154 232.576V237H35.1994V226.444H36.7114C38.0274 226.444 39.0121 226.626 39.6654 226.99C40.5334 227.466 40.9674 228.301 40.9674 229.496C40.9674 230.551 40.6034 231.344 39.8754 231.876C39.2314 232.343 38.3634 232.576 37.2714 232.576H36.5154ZM36.5154 227.62V231.4H36.9354C38.8021 231.4 39.7354 230.756 39.7354 229.468C39.7354 228.236 38.7787 227.62 36.8654 227.62H36.5154ZM47.4239 225.674L48.4599 226.444C47.6573 228.124 47.2559 230.205 47.2559 232.688C47.2559 235.171 47.6573 237.252 48.4599 238.932L47.4239 239.702C46.4533 237.798 45.9679 235.46 45.9679 232.688C45.9679 229.897 46.4533 227.559 47.4239 225.674ZM57.9518 226.934V228.46C57.1771 227.769 56.2485 227.424 55.1658 227.424C53.9898 227.424 53.0005 227.849 52.1978 228.698C51.3951 229.538 50.9938 230.551 50.9938 231.736C50.9938 232.912 51.3905 233.92 52.1838 234.76C52.9771 235.6 53.9618 236.02 55.1378 236.02C56.2018 236.02 57.1398 235.656 57.9518 234.928V236.482C57.1118 236.977 56.1878 237.224 55.1798 237.224C53.6491 237.224 52.3471 236.697 51.2738 235.642C50.2098 234.587 49.6778 233.299 49.6778 231.778C49.6778 230.21 50.2191 228.894 51.3018 227.83C52.3938 226.757 53.7238 226.22 55.2918 226.22C56.2905 226.22 57.1771 226.458 57.9518 226.934ZM64.4777 237.224L61.3137 230.028H61.2857L60.0537 237H58.6957L60.8517 225.996L64.4777 234.312L68.1037 225.996L70.2597 237H68.9017L67.6697 230.028H67.6417L64.4777 237.224ZM71.2199 226.444L72.2559 225.674C73.2265 227.559 73.7119 229.897 73.7119 232.688C73.7119 235.46 73.2265 237.798 72.2559 239.702L71.2199 238.932C72.0225 237.252 72.4239 235.171 72.4239 232.688C72.4239 230.205 72.0225 228.124 71.2199 226.444Z" fill="#504B4C"/>
<path d="M23.4015 277.62V281.12H23.7375C24.4561 281.12 24.9881 281.013 25.3335 280.798C25.7815 280.518 26.0055 280.037 26.0055 279.356C26.0055 278.675 25.7908 278.203 25.3615 277.942C25.0161 277.727 24.4841 277.62 23.7655 277.62H23.4015ZM23.4015 282.17V285.824H24.4095C26.0708 285.824 26.9015 285.203 26.9015 283.962C26.9015 282.767 26.0055 282.17 24.2135 282.17H23.4015ZM22.0855 287V276.444H23.3735C25.9495 276.444 27.2375 277.41 27.2375 279.342C27.2375 279.753 27.1395 280.14 26.9435 280.504C26.7288 280.905 26.4488 281.185 26.1035 281.344V281.372C26.7195 281.484 27.2235 281.801 27.6155 282.324C28.0168 282.837 28.2175 283.411 28.2175 284.046C28.2175 285.035 27.8395 285.791 27.0835 286.314C26.4301 286.771 25.5855 287 24.5495 287H22.0855ZM30.9636 276.444V287H29.6476V276.444H30.9636ZM40.6295 276.934V278.46C39.8549 277.769 38.9262 277.424 37.8435 277.424C36.6675 277.424 35.6782 277.849 34.8755 278.698C34.0729 279.538 33.6715 280.551 33.6715 281.736C33.6715 282.912 34.0682 283.92 34.8615 284.76C35.6549 285.6 36.6395 286.02 37.8155 286.02C38.8795 286.02 39.8175 285.656 40.6295 284.928V286.482C39.7895 286.977 38.8655 287.224 37.8575 287.224C36.3269 287.224 35.0249 286.697 33.9515 285.642C32.8875 284.587 32.3555 283.299 32.3555 281.778C32.3555 280.21 32.8969 278.894 33.9795 277.83C35.0715 276.757 36.4015 276.22 37.9695 276.22C38.9682 276.22 39.8549 276.458 40.6295 276.934ZM42.1994 287V276.444H47.8694V277.648H43.5154V280.602H47.7434V281.806H43.5154V285.796H47.8694V287H42.1994ZM50.8162 282.576V287H49.5002V276.444H51.0122C52.3282 276.444 53.3129 276.626 53.9662 276.99C54.8342 277.466 55.2682 278.301 55.2682 279.496C55.2682 280.551 54.9042 281.344 54.1762 281.876C53.5322 282.343 52.6642 282.576 51.5722 282.576H50.8162ZM50.8162 277.62V281.4H51.2362C53.1029 281.4 54.0362 280.756 54.0362 279.468C54.0362 278.236 53.0795 277.62 51.1662 277.62H50.8162ZM61.7247 275.674L62.7607 276.444C61.958 278.124 61.5567 280.205 61.5567 282.688C61.5567 285.171 61.958 287.252 62.7607 288.932L61.7247 289.702C60.754 287.798 60.2687 285.46 60.2687 282.688C60.2687 279.897 60.754 277.559 61.7247 275.674ZM72.2526 276.934V278.46C71.4779 277.769 70.5493 277.424 69.4666 277.424C68.2906 277.424 67.3013 277.849 66.4986 278.698C65.6959 279.538 65.2946 280.551 65.2946 281.736C65.2946 282.912 65.6913 283.92 66.4846 284.76C67.2779 285.6 68.2626 286.02 69.4386 286.02C70.5026 286.02 71.4406 285.656 72.2526 284.928V286.482C71.4126 286.977 70.4886 287.224 69.4806 287.224C67.9499 287.224 66.6479 286.697 65.5746 285.642C64.5106 284.587 63.9786 283.299 63.9786 281.778C63.9786 280.21 64.5199 278.894 65.6026 277.83C66.6946 276.757 68.0246 276.22 69.5926 276.22C70.5913 276.22 71.4779 276.458 72.2526 276.934ZM78.7785 287.224L75.6145 280.028H75.5865L74.3545 287H72.9965L75.1525 275.996L78.7785 284.312L82.4045 275.996L84.5605 287H83.2025L81.9705 280.028H81.9425L78.7785 287.224ZM85.5207 276.444L86.5567 275.674C87.5273 277.559 88.0127 279.897 88.0127 282.688C88.0127 285.46 87.5273 287.798 86.5567 289.702L85.5207 288.932C86.3233 287.252 86.7247 285.171 86.7247 282.688C86.7247 280.205 86.3233 278.124 85.5207 276.444Z" fill="#504B4C"/>
</g>
<rect x="0.5" y="0.5" width="642" height="311" stroke="#CECED3"/>
<defs>
<clipPath id="clip0_438_1737">
<rect x="1" y="1" width="641" height="310" fill="white"/>
</clipPath>
</defs>
</svg>
